<?xml version="1.0" encoding="UTF-8" standalone="no"?>
<svg
   xmlns:dc="http://purl.org/dc/elements/1.1/"
   xmlns:cc="http://creativecommons.org/ns#"
   xmlns:rdf="http://www.w3.org/1999/02/22-rdf-syntax-ns#"
   xmlns:svg="http://www.w3.org/2000/svg"
   xmlns="http://www.w3.org/2000/svg"
   id="svg8"
   version="1.1"
   viewBox="0 0 39.158332 41.275"
   height="156"
   width="148">
  <defs
     id="defs2">
    <path
       id="path0_stroke"
       d="m 17.5,36.0333 -0.6516,0.7586 c 0.3747,0.3219 0.9285,0.3219 1.3032,0 z M 35.6516,21.7585 c 0.419,-0.3599 0.4668,-0.9912 0.1069,-1.4101 -0.3598,-0.419 -0.9912,-0.4668 -1.4101,-0.107 z M 0.651624,20.2414 c -0.418931,-0.3598 -1.050284,-0.312 -1.410166,0.107 -0.359878,0.4189 -0.312018,1.0502 0.106918,1.4101 z M 17.5,15.0333 16.8484,15.7919 c 0.3747,0.3219 0.9285,0.3219 1.3032,0 z M 35.6516,0.758534 c 0.419,-0.359882 0.4668,-0.991235 0.1069,-1.410166 C 35.3987,-1.07056 34.7673,-1.11843 34.3484,-0.758551 Z M 0.651624,-0.758551 C 0.232693,-1.11843 -0.39866,-1.07056 -0.758542,-0.651632 -1.11842,-0.232701 -1.07056,0.398652 -0.651624,0.758534 Z M 18.1516,36.7919 l 17.5,-15.0334 -1.3032,-1.5171 -17.5,15.0334 z m 0,-1.5171 L 0.651624,20.2414 -0.651624,21.7585 16.8484,36.7919 Z m 0,-19.4829 17.5,-15.033366 -1.3032,-1.517085 -17.5,15.033351 z m 0,-1.5171 L 0.651624,-0.758551 -0.651624,0.758534 16.8484,15.7919 Z" />
  </defs>
  <metadata
     id="metadata5">
    <rdf:RDF>
      <cc:Work
         rdf:about="">
        <dc:format>image/svg+xml</dc:format>
        <dc:type
           rdf:resource="http://purl.org/dc/dcmitype/StillImage" />
        <dc:title></dc:title>
      </cc:Work>
    </rdf:RDF>
  </metadata>
  <g
     transform="translate(0,-255.72498)"
     id="layer1">
    <g
       transform="translate(-1.7772007,-0.33851439)"
       id="g3847">
      <path
         id="path3863"
         d="m 6.8449297,285.06382 v -5.61555 l 0.5969844,0.61559 c 0.9924073,1.02333 11.7168199,10.14644 12.0939229,10.28813 0.192999,0.0725 0.350907,0.17584 0.350907,0.22961 0,0.0538 -2.934408,0.0978 -6.520907,0.0978 H 6.8449297 Z m 14.1439393,5.51915 c 0,-0.053 0.185983,-0.17121 0.413297,-0.26265 0.458216,-0.18434 11.799019,-9.89541 12.302978,-10.53497 0.302574,-0.38399 0.317559,-0.13945 0.321453,5.24562 l 0.0041,5.64839 H 27.50979 c -3.586499,0 -6.520907,-0.0434 -6.520907,-0.0964 z m -6.743468,-7.31401 c -3.336427,-2.86338 -6.2130706,-5.26249 -6.3925408,-5.33136 -0.197994,-0.076 -0.4603271,-0.004 -0.6671199,0.18321 -0.3314093,0.29992 -0.3407854,0.10876 -0.3398982,-6.92978 l 9.124e-4,-7.2382 0.4123845,0.4908 c 0.2268115,0.26994 3.16962,2.85304 6.539575,5.74023 4.894192,4.19308 6.231654,5.24944 6.646307,5.24944 0.414834,0 1.748531,-1.05462 6.639092,-5.24986 3.365987,-2.88742 6.305548,-5.47053 6.53236,-5.74024 l 0.412386,-0.49037 9.18e-4,7.2382 c 9.19e-4,7.03854 -0.0085,7.2297 -0.339897,6.92978 -0.211125,-0.19107 -0.467891,-0.25967 -0.674771,-0.18028 -0.183678,0.0705 -3.059843,2.4696 -6.391475,5.33137 -3.331641,2.86177 -6.114781,5.20321 -6.184762,5.20321 -0.06998,0 -2.857044,-2.34276 -6.193471,-5.20615 z m 0,-15.42975 c -3.336427,-2.86338 -6.2130706,-5.2625 -6.3925408,-5.33137 -0.197994,-0.076 -0.4603271,-0.004 -0.6671199,0.18322 -0.3238249,0.29305 -0.3408106,0.28412 -0.3408106,-0.17926 v -0.48769 H 20.437806 34.030683 v 0.48769 c 0,0.46338 -0.01699,0.47231 -0.34081,0.17926 -0.211125,-0.19107 -0.467891,-0.25967 -0.674771,-0.18028 -0.183678,0.0705 -3.059843,2.4696 -6.391475,5.33137 -3.331634,2.86177 -6.114774,5.20321 -6.184755,5.20321 -0.06998,0 -2.857044,-2.34277 -6.193471,-5.20615 z"
         style="fill:#fefefe;stroke-width:0.18368752" />
      <path
         id="path3861"
         d="m 18.141712,289.28644 -1.102125,-1.02488 1.148047,0.96092 c 1.020874,0.85447 1.25952,1.09031 1.102125,1.08918 -0.02526,-1.9e-4 -0.541878,-0.46153 -1.148047,-1.02522 z m 3.765594,0.63258 c 0.424487,-0.43857 10.6528,-9.23399 11.48047,-9.87216 l 0.367375,-0.28327 -0.367375,0.37798 c -0.302243,0.31097 -9.917909,8.57946 -11.48047,9.87203 l -0.459218,0.37987 z m -7.732041,-6.51915 c -3.375001,-2.89242 -6.1708078,-5.28954 -6.2129029,-5.32694 -0.042095,-0.0374 -0.025711,-0.068 0.03641,-0.068 0.06212,0 2.8579269,2.3558 6.2129029,5.2351 3.354977,2.8793 6.157215,5.23509 6.227197,5.23509 0.06998,0 2.869822,-2.35579 6.221869,-5.23509 3.352045,-2.8793 6.147373,-5.2351 6.211838,-5.2351 0.06446,0 0.08277,0.0297 0.04067,0.066 -5.739431,4.95183 -12.379659,10.58784 -12.474379,10.58784 -0.06998,0 -2.888605,-2.36652 -6.263607,-5.25893 z m -2.037168,0.79126 c -4.165861,-3.5972 -5.8021744,-5.05653 -4.650261,-4.14728 1.0127478,0.79941 9.459907,8.08713 9.459907,8.16147 0,0.14123 0.07979,0.20782 -4.809646,-4.01419 z m 6.376859,-9.96447 c -0.760939,-0.66365 -1.383525,-1.25078 -1.383525,-1.30473 0,-0.0539 0.557951,0.39319 1.239891,0.99365 0.68194,0.60045 1.405209,1.18507 1.607265,1.29914 0.202057,0.11407 0.266692,0.20992 0.143635,0.21299 -0.123057,0.003 -0.846327,-0.5374 -1.607266,-1.20105 z m 2.382069,0.98298 c 0.202056,-0.11686 3.012475,-2.4841 6.245376,-5.26053 3.2329,-2.77643 6.043319,-5.17599 6.245375,-5.33236 1.19128,-0.9219 -0.829907,0.86132 -6.303663,5.56149 -3.365986,2.89028 -6.217735,5.25255 -6.337219,5.24947 -0.119484,-0.003 -0.05193,-0.1012 0.150131,-0.21807 z m -6.72176,-7.23952 c -3.375001,-2.89242 -6.1708078,-5.28954 -6.2129029,-5.32694 -0.042095,-0.0374 -0.025711,-0.068 0.03641,-0.068 0.06212,0 2.8579269,2.3558 6.2129029,5.2351 3.354977,2.8793 6.157215,5.23509 6.227197,5.23509 0.06998,0 2.869822,-2.35579 6.221869,-5.23509 3.352045,-2.8793 6.147373,-5.2351 6.211838,-5.2351 0.06446,0 0.08277,0.0297 0.04067,0.066 -5.739431,4.95183 -12.379659,10.58784 -12.474379,10.58784 -0.06998,0 -2.888605,-2.36652 -6.263607,-5.25893 z m -2.037168,0.79126 c -4.165861,-3.5972 -5.8021744,-5.05653 -4.650261,-4.14728 1.0127478,0.7994 9.459907,8.08713 9.459907,8.16146 0,0.14124 0.07979,0.20783 -4.809646,-4.01418 z"
         style="fill:#d1d1d1;stroke-width:0.18368752" />
      <path
         id="path3859"
         d="m 19.128563,289.99054 c -0.228483,-0.29134 -0.221986,-0.29784 0.06935,-0.0694 0.1768,0.13866 0.321454,0.28331 0.321454,0.32146 0,0.15118 -0.150842,0.0539 -0.390806,-0.2521 z m 2.227681,0.2521 c 0,-0.0381 0.144654,-0.1828 0.321453,-0.32146 0.291339,-0.22848 0.297836,-0.22198 0.06935,0.0694 -0.239964,0.30597 -0.390805,0.40328 -0.390805,0.2521 z m -3.415672,-1.26239 -0.349922,-0.41329 0.413297,0.34992 c 0.388397,0.32884 0.496919,0.47667 0.349922,0.47667 -0.03486,0 -0.22084,-0.18598 -0.413297,-0.4133 z m 4.793328,0.0459 c 0.182859,-0.20206 0.3738,-0.36738 0.424314,-0.36738 0.05051,0 -0.05777,0.16532 -0.240626,0.36738 -0.182859,0.20205 -0.3738,0.36737 -0.424314,0.36737 -0.05051,0 0.05777,-0.16532 0.240626,-0.36737 z m -6.167434,-1.23989 -0.445317,-0.50515 0.505141,0.44532 c 0.47213,0.41622 0.589378,0.56497 0.445316,0.56497 -0.0329,0 -0.260216,-0.22732 -0.50514,-0.50514 z m 7.453247,0.13776 c 0.182858,-0.20206 0.373799,-0.36737 0.424313,-0.36737 0.05051,0 -0.05777,0.16531 -0.240626,0.36737 -0.182858,0.20206 -0.373799,0.36738 -0.424313,0.36738 -0.05051,0 0.05777,-0.16532 0.240626,-0.36738 z m -5.160703,-0.4133 -0.349923,-0.41329 0.413297,0.34992 c 0.388397,0.32884 0.496919,0.47667 0.349923,0.47667 -0.03486,0 -0.22084,-0.18598 -0.413297,-0.4133 z m 2.956453,0.0459 c 0.182858,-0.20206 0.373799,-0.36738 0.424313,-0.36738 0.05051,0 -0.05777,0.16532 -0.240626,0.36738 -0.182858,0.20205 -0.373799,0.36737 -0.424313,0.36737 -0.05051,0 0.05777,-0.16532 0.240626,-0.36737 z m 3.581906,-0.8266 c 0.237279,-0.25257 0.472744,-0.45922 0.523258,-0.45922 0.05051,0 -0.102292,0.20665 -0.33957,0.45922 -0.237279,0.25257 -0.472744,0.45922 -0.523258,0.45922 -0.05051,0 0.102293,-0.20665 0.33957,-0.45922 z m -10.21211,-0.13776 -0.349922,-0.4133 0.413297,0.34992 c 0.388397,0.32884 0.496919,0.47667 0.349922,0.47667 -0.03486,0 -0.220839,-0.18598 -0.413297,-0.41329 z m 2.387938,-0.18369 -0.349922,-0.4133 0.413297,0.34992 c 0.388397,0.32885 0.496919,0.47668 0.349922,0.47668 -0.03486,0 -0.22084,-0.18599 -0.413297,-0.4133 z m 5.528078,0.0459 c 0.182859,-0.20206 0.3738,-0.36737 0.424314,-0.36737 0.05051,0 -0.05777,0.16531 -0.240626,0.36737 -0.182859,0.20206 -0.3738,0.36738 -0.424314,0.36738 -0.05051,0 0.05777,-0.16532 0.240626,-0.36738 z m -9.201828,-0.96436 -0.349923,-0.4133 0.413297,0.34993 c 0.388397,0.32884 0.496919,0.47667 0.349923,0.47667 -0.03486,0 -0.22084,-0.18599 -0.413297,-0.4133 z m 12.875579,0.0459 c 0.182859,-0.20205 0.3738,-0.36737 0.424314,-0.36737 0.05051,0 -0.05777,0.16532 -0.240627,0.36737 -0.182859,0.20206 -0.3738,0.36738 -0.424314,0.36738 -0.05051,0 0.05777,-0.16532 0.240627,-0.36738 z m -10.487642,-0.22961 -0.349922,-0.41329 0.413297,0.34992 c 0.388397,0.32884 0.496919,0.47667 0.349922,0.47667 -0.03486,0 -0.220839,-0.18598 -0.413297,-0.4133 z m 8.099704,0.0459 c 0.182858,-0.20206 0.373799,-0.36738 0.424313,-0.36738 0.05052,0 -0.05777,0.16532 -0.240626,0.36738 -0.182858,0.20205 -0.373799,0.36737 -0.424313,0.36737 -0.05051,0 0.05777,-0.16532 0.240626,-0.36737 z m -11.773454,-0.96436 -0.349922,-0.4133 0.413296,0.34992 c 0.388398,0.32884 0.496919,0.47667 0.349923,0.47667 -0.03486,0 -0.22084,-0.18598 -0.413297,-0.41329 z m 15.447204,0.0459 c 0.182859,-0.20206 0.373801,-0.36738 0.424315,-0.36738 0.05051,0 -0.05777,0.16532 -0.240627,0.36738 -0.182859,0.20205 -0.373801,0.36737 -0.424315,0.36737 -0.05051,0 0.05777,-0.16532 0.240627,-0.36737 z m -13.059266,-0.22961 -0.349923,-0.4133 0.413297,0.34992 c 0.388397,0.32885 0.496919,0.47668 0.349923,0.47668 -0.03486,0 -0.22084,-0.18599 -0.413297,-0.4133 z m 10.671329,0.0459 c 0.182859,-0.20206 0.3738,-0.36737 0.424314,-0.36737 0.05051,0 -0.05777,0.16531 -0.240627,0.36737 -0.182859,0.20206 -0.3738,0.36738 -0.424314,0.36738 -0.05052,0 0.05777,-0.16532 0.240627,-0.36738 z m -14.34508,-0.96436 -0.349922,-0.4133 0.413297,0.34993 c 0.227313,0.19245 0.413297,0.37844 0.413297,0.41329 0,0.147 -0.147831,0.0385 -0.476672,-0.34992 z m 18.01883,0.0459 c 0.182859,-0.20205 0.3738,-0.36737 0.424314,-0.36737 0.05051,0 -0.05777,0.16532 -0.240627,0.36737 -0.182859,0.20206 -0.3738,0.36738 -0.424314,0.36738 -0.05051,0 0.05777,-0.16532 0.240627,-0.36738 z m -15.630892,-0.22961 -0.349922,-0.41329 0.413297,0.34992 c 0.388397,0.32884 0.496919,0.47667 0.349922,0.47667 -0.03486,0 -0.220839,-0.18598 -0.413297,-0.4133 z m 13.242954,0.0459 c 0.182859,-0.20206 0.373801,-0.36738 0.424315,-0.36738 0.05051,0 -0.05777,0.16532 -0.240627,0.36738 -0.182859,0.20205 -0.373801,0.36737 -0.424315,0.36737 -0.05051,0 0.05777,-0.16532 0.240627,-0.36737 z m -16.916704,-0.96436 -0.3499227,-0.4133 0.4132967,0.34992 c 0.388397,0.32884 0.496919,0.47667 0.349923,0.47667 -0.03486,0 -0.22084,-0.18598 -0.413297,-0.41329 z m 20.590455,0.0459 c 0.182859,-0.20206 0.3738,-0.36738 0.424314,-0.36738 0.05051,0 -0.05777,0.16532 -0.240627,0.36738 -0.182859,0.20205 -0.3738,0.36737 -0.424314,0.36737 -0.05051,0 0.05777,-0.16532 0.240627,-0.36737 z m -18.202517,-0.22961 -0.349923,-0.4133 0.413297,0.34992 c 0.388397,0.32885 0.496919,0.47668 0.349922,0.47668 -0.03486,0 -0.220839,-0.18599 -0.413296,-0.4133 z m 15.814579,0.0459 c 0.182859,-0.20206 0.3738,-0.36737 0.424314,-0.36737 0.05051,0 -0.05777,0.16531 -0.240627,0.36737 -0.182859,0.20206 -0.3738,0.36738 -0.424314,0.36738 -0.05051,0 0.05777,-0.16532 0.240627,-0.36738 z m -19.4883299,-0.96436 -0.3499225,-0.4133 0.4132969,0.34993 c 0.2273133,0.19245 0.413297,0.37844 0.413297,0.41329 0,0.147 -0.1478307,0.0385 -0.4766714,-0.34992 z m 23.1620799,0.0459 c 0.182859,-0.20205 0.373801,-0.36737 0.424315,-0.36737 0.05051,0 -0.05777,0.16532 -0.240627,0.36737 -0.182859,0.20206 -0.373801,0.36738 -0.424315,0.36738 -0.05051,0 0.05777,-0.16532 0.240627,-0.36738 z m -20.774142,-0.22961 -0.349923,-0.41329 0.413297,0.34992 c 0.388397,0.32884 0.496919,0.47667 0.349923,0.47667 -0.03486,0 -0.22084,-0.18598 -0.413297,-0.4133 z m 18.569892,-0.13776 c 0.182859,-0.20206 0.3738,-0.36738 0.424314,-0.36738 0.05052,0 -0.05777,0.16532 -0.240627,0.36738 -0.182859,0.20205 -0.3738,0.36737 -0.424314,0.36737 -0.05051,0 0.05777,-0.16532 0.240627,-0.36737 z m -22.2436426,-0.78067 -0.3499224,-0.4133 0.4132969,0.34992 c 0.2273133,0.19246 0.4132969,0.37844 0.4132969,0.4133 0,0.14699 -0.1478306,0.0385 -0.4766714,-0.34992 z m 25.7337056,0.0459 c 0.182859,-0.20206 0.3738,-0.36738 0.424314,-0.36738 0.05051,0 -0.05777,0.16532 -0.240627,0.36738 -0.182859,0.20205 -0.3738,0.36737 -0.424314,0.36737 -0.05051,0 0.05777,-0.16532 0.240627,-0.36737 z m -23.4340615,-0.32146 -0.4453163,-0.50514 0.5051407,0.44532 c 0.4721301,0.41622 0.5893771,0.56497 0.4453161,0.56497 -0.0329,0 -0.260217,-0.22732 -0.5051405,-0.50515 z m 21.2298115,-0.0459 c 0.182859,-0.20205 0.3738,-0.36737 0.424314,-0.36737 0.05051,0 -0.05777,0.16532 -0.240627,0.36737 -0.182859,0.20206 -0.3738,0.36738 -0.424314,0.36738 -0.05051,0 0.05777,-0.16532 0.240627,-0.36738 z m -22.5251519,-1.0562 c -0.2284835,-0.29134 -0.2219865,-0.29784 0.069352,-0.0693 0.3059771,0.23996 0.4032821,0.3908 0.252101,0.3908 -0.038144,0 -0.1827977,-0.14465 -0.3214532,-0.32145 z m 23.5354329,0.2521 c 0,-0.0381 0.144654,-0.1828 0.321453,-0.32145 0.29134,-0.22849 0.297837,-0.22199 0.06935,0.0693 -0.239964,0.30598 -0.390806,0.40328 -0.390806,0.2521 z m 1.735847,-0.46388 c -0.09598,-0.0912 -0.339822,-0.20562 -0.541878,-0.25422 -0.348477,-0.0838 -0.347272,-0.0895 0.02343,-0.10968 0.214942,-0.0117 0.493706,0.10268 0.619475,0.25423 0.249356,0.30045 0.179492,0.37629 -0.101027,0.10967 z M 7.1788658,278.14858 c 0.097957,-0.098 0.3315379,-0.14559 0.5190684,-0.10584 0.2525368,0.0535 0.2063464,0.0997 -0.1781039,0.17811 -0.335197,0.0683 -0.455978,0.0427 -0.3409645,-0.0723 z m 12.0475192,-3.49595 -0.349923,-0.4133 0.413297,0.34992 c 0.388397,0.32884 0.496919,0.47667 0.349923,0.47667 -0.03486,0 -0.22084,-0.18598 -0.413297,-0.41329 z m 2.221703,0.0459 c 0.182858,-0.20206 0.373799,-0.36738 0.424313,-0.36738 0.05051,0 -0.05777,0.16532 -0.240626,0.36738 -0.182858,0.20206 -0.373799,0.36737 -0.424313,0.36737 -0.05052,0 0.05777,-0.16531 0.240626,-0.36737 z m -3.507516,-1.14805 -0.349922,-0.41329 0.413297,0.34992 c 0.388397,0.32884 0.496919,0.47667 0.349922,0.47667 -0.03486,0 -0.22084,-0.18598 -0.413297,-0.4133 z m 4.793328,0.0459 c 0.182859,-0.20205 0.3738,-0.36737 0.424314,-0.36737 0.05051,0 -0.05777,0.16532 -0.240626,0.36737 -0.182859,0.20206 -0.3738,0.36738 -0.424314,0.36738 -0.05051,0 0.05777,-0.16532 0.240626,-0.36738 z m -6.167434,-1.23989 -0.445317,-0.50514 0.505141,0.44532 c 0.47213,0.41621 0.589378,0.56496 0.445316,0.56496 -0.0329,0 -0.260216,-0.22731 -0.50514,-0.50514 z m 7.453247,0.13777 c 0.182858,-0.20206 0.373799,-0.36738 0.424313,-0.36738 0.05051,0 -0.05777,0.16532 -0.240626,0.36738 -0.182858,0.20206 -0.373799,0.36737 -0.424313,0.36737 -0.05051,0 0.05777,-0.16531 0.240626,-0.36737 z m -5.160703,-0.4133 -0.349923,-0.41329 0.413297,0.34992 c 0.388397,0.32884 0.496919,0.47667 0.349923,0.47667 -0.03486,0 -0.22084,-0.18598 -0.413297,-0.4133 z m 2.956453,0.0459 c 0.182858,-0.20205 0.373799,-0.36737 0.424313,-0.36737 0.05051,0 -0.05777,0.16532 -0.240626,0.36737 -0.182858,0.20206 -0.373799,0.36738 -0.424313,0.36738 -0.05051,0 0.05777,-0.16532 0.240626,-0.36738 z m 3.581906,-0.82659 c 0.237279,-0.25257 0.472744,-0.45922 0.523258,-0.45922 0.05051,0 -0.102292,0.20665 -0.33957,0.45922 -0.237279,0.25257 -0.472744,0.45922 -0.523258,0.45922 -0.05051,0 0.102293,-0.20665 0.33957,-0.45922 z m -10.21211,-0.13777 -0.349922,-0.41329 0.413297,0.34992 c 0.388397,0.32884 0.496919,0.47667 0.349922,0.47667 -0.03486,0 -0.220839,-0.18598 -0.413297,-0.4133 z m 2.387938,-0.18368 -0.349922,-0.4133 0.413297,0.34992 c 0.227313,0.19246 0.413296,0.37844 0.413296,0.4133 0,0.147 -0.14783,0.0385 -0.476671,-0.34992 z m 5.528078,0.0459 c 0.182859,-0.20206 0.3738,-0.36738 0.424314,-0.36738 0.05051,0 -0.05777,0.16532 -0.240626,0.36738 -0.182859,0.20206 -0.3738,0.36737 -0.424314,0.36737 -0.05051,0 0.05777,-0.16531 0.240626,-0.36737 z m -9.201828,-0.96436 -0.349923,-0.4133 0.413297,0.34992 c 0.227313,0.19246 0.413297,0.37845 0.413297,0.4133 0,0.147 -0.147831,0.0385 -0.476671,-0.34992 z m 12.875579,0.0459 c 0.182859,-0.20206 0.3738,-0.36737 0.424314,-0.36737 0.05051,0 -0.05777,0.16531 -0.240627,0.36737 -0.182859,0.20206 -0.3738,0.36738 -0.424314,0.36738 -0.05051,0 0.05777,-0.16532 0.240627,-0.36738 z m -10.487642,-0.22961 -0.349922,-0.4133 0.413297,0.34993 c 0.388397,0.32884 0.496919,0.47667 0.349922,0.47667 -0.03486,0 -0.220839,-0.18598 -0.413297,-0.4133 z m 8.099704,0.0459 c 0.182858,-0.20205 0.373799,-0.36737 0.424313,-0.36737 0.05052,0 -0.05777,0.16532 -0.240626,0.36737 -0.182858,0.20206 -0.373799,0.36738 -0.424313,0.36738 -0.05051,0 0.05777,-0.16532 0.240626,-0.36738 z m -11.773454,-0.96436 -0.349922,-0.41329 0.413296,0.34992 c 0.227314,0.19246 0.413297,0.37844 0.413297,0.4133 0,0.14699 -0.14783,0.0385 -0.476671,-0.34993 z m 15.447204,0.0459 c 0.182859,-0.20206 0.373801,-0.36738 0.424315,-0.36738 0.05051,0 -0.05777,0.16532 -0.240627,0.36738 -0.182859,0.20205 -0.373801,0.36737 -0.424315,0.36737 -0.05051,0 0.05777,-0.16532 0.240627,-0.36737 z m -13.059266,-0.22961 -0.349923,-0.4133 0.413297,0.34992 c 0.388397,0.32884 0.496919,0.47667 0.349923,0.47667 -0.03486,0 -0.22084,-0.18598 -0.413297,-0.41329 z m 10.671329,0.0459 c 0.182859,-0.20206 0.3738,-0.36738 0.424314,-0.36738 0.05051,0 -0.05777,0.16532 -0.240627,0.36738 -0.182859,0.20205 -0.3738,0.36737 -0.424314,0.36737 -0.05052,0 0.05777,-0.16532 0.240627,-0.36737 z m -14.34508,-0.96436 -0.349922,-0.4133 0.413297,0.34992 c 0.388397,0.32885 0.496919,0.47668 0.349922,0.47668 -0.03486,0 -0.220839,-0.18599 -0.413297,-0.4133 z m 18.01883,0.0459 c 0.182859,-0.20206 0.3738,-0.36737 0.424314,-0.36737 0.05051,0 -0.05777,0.16531 -0.240627,0.36737 -0.182859,0.20206 -0.3738,0.36738 -0.424314,0.36738 -0.05051,0 0.05777,-0.16532 0.240627,-0.36738 z m -15.630892,-0.22961 -0.349922,-0.4133 0.413297,0.34993 c 0.388397,0.32884 0.496919,0.47667 0.349922,0.47667 -0.03486,0 -0.220839,-0.18599 -0.413297,-0.4133 z m 13.242954,0.0459 c 0.182859,-0.20205 0.373801,-0.36737 0.424315,-0.36737 0.05051,0 -0.05777,0.16532 -0.240627,0.36737 -0.182859,0.20206 -0.373801,0.36738 -0.424315,0.36738 -0.05051,0 0.05777,-0.16532 0.240627,-0.36738 z m -16.916704,-0.96436 -0.3499227,-0.41329 0.4132967,0.34992 c 0.388397,0.32884 0.496919,0.47667 0.349923,0.47667 -0.03486,0 -0.22084,-0.18598 -0.413297,-0.4133 z m 20.590455,0.0459 c 0.182859,-0.20206 0.3738,-0.36738 0.424314,-0.36738 0.05051,0 -0.05777,0.16532 -0.240627,0.36738 -0.182859,0.20205 -0.3738,0.36737 -0.424314,0.36737 -0.05051,0 0.05777,-0.16532 0.240627,-0.36737 z m -18.202517,-0.22961 -0.349923,-0.4133 0.413297,0.34992 c 0.388397,0.32884 0.496919,0.47667 0.349922,0.47667 -0.03486,0 -0.220839,-0.18598 -0.413296,-0.41329 z m 15.814579,0.0459 c 0.182859,-0.20206 0.3738,-0.36738 0.424314,-0.36738 0.05051,0 -0.05777,0.16532 -0.240627,0.36738 -0.182859,0.20205 -0.3738,0.36737 -0.424314,0.36737 -0.05051,0 0.05777,-0.16532 0.240627,-0.36737 z m -19.4883299,-0.96436 -0.3499225,-0.4133 0.4132969,0.34992 c 0.3883972,0.32884 0.4969191,0.47668 0.3499226,0.47668 -0.034856,0 -0.2208396,-0.18599 -0.413297,-0.4133 z m 23.1620799,0.0459 c 0.182859,-0.20206 0.373801,-0.36737 0.424315,-0.36737 0.05051,0 -0.05777,0.16531 -0.240627,0.36737 -0.182859,0.20206 -0.373801,0.36738 -0.424315,0.36738 -0.05051,0 0.05777,-0.16532 0.240627,-0.36738 z m -20.774142,-0.22961 -0.349923,-0.4133 0.413297,0.34993 c 0.388397,0.32884 0.496919,0.47667 0.349923,0.47667 -0.03486,0 -0.22084,-0.18599 -0.413297,-0.4133 z m 18.569892,-0.13776 c 0.182859,-0.20206 0.3738,-0.36738 0.424314,-0.36738 0.05052,0 -0.05777,0.16532 -0.240627,0.36738 -0.182859,0.20205 -0.3738,0.36737 -0.424314,0.36737 -0.05051,0 0.05777,-0.16532 0.240627,-0.36737 z m -22.2436426,-0.78068 -0.3499224,-0.41329 0.4132969,0.34992 c 0.2273133,0.19246 0.4132969,0.37844 0.4132969,0.4133 0,0.14699 -0.1478306,0.0385 -0.4766714,-0.34993 z m 25.7337056,0.0459 c 0.182859,-0.20206 0.3738,-0.36738 0.424314,-0.36738 0.05051,0 -0.05777,0.16532 -0.240627,0.36738 -0.182859,0.20205 -0.3738,0.36737 -0.424314,0.36737 -0.05051,0 0.05777,-0.16532 0.240627,-0.36737 z m -23.4340615,-0.32146 -0.4453163,-0.50514 0.5051407,0.44532 c 0.2778271,0.24492 0.5051411,0.47224 0.5051411,0.50514 0,0.14406 -0.14875,0.0268 -0.5649655,-0.44532 z m 21.2298115,-0.0459 c 0.182859,-0.20206 0.3738,-0.36737 0.424314,-0.36737 0.05051,0 -0.05777,0.16531 -0.240627,0.36737 -0.182859,0.20206 -0.3738,0.36738 -0.424314,0.36738 -0.05051,0 0.05777,-0.16532 0.240627,-0.36738 z m -22.5251519,-1.0562 c -0.2284835,-0.29134 -0.2219865,-0.29784 0.069352,-0.0694 0.3059771,0.23997 0.4032821,0.39081 0.252101,0.39081 -0.038144,0 -0.1827977,-0.14465 -0.3214532,-0.32145 z m 23.5354329,0.2521 c 0,-0.0382 0.144654,-0.1828 0.321453,-0.32146 0.29134,-0.22848 0.297837,-0.22198 0.06935,0.0694 -0.239964,0.30597 -0.390806,0.40328 -0.390806,0.2521 z m 1.735847,-0.46388 c -0.09598,-0.0912 -0.339822,-0.20563 -0.541878,-0.25423 -0.348477,-0.0838 -0.347272,-0.0895 0.02343,-0.10967 0.214942,-0.0117 0.493706,0.10268 0.619475,0.25422 0.249356,0.30046 0.179492,0.3763 -0.101027,0.10968 z M 7.1788658,262.71882 c 0.097957,-0.0979 0.3315379,-0.14558 0.5190684,-0.10583 0.2525368,0.0535 0.2063464,0.0997 -0.1781039,0.17811 -0.335197,0.0683 -0.455978,0.0427 -0.3409645,-0.0723 z"
         style="fill:#b0b0b0;stroke-width:0.18368752" />
      <path
         id="path3857"
         d="m 18.491635,289.34763 -0.349923,-0.4133 0.413297,0.34993 c 0.388397,0.32884 0.496919,0.47667 0.349923,0.47667 -0.03486,0 -0.22084,-0.18599 -0.413297,-0.4133 z m 3.691203,0.0459 c 0.182858,-0.20205 0.373799,-0.36737 0.424313,-0.36737 0.05051,0 -0.05777,0.16532 -0.240626,0.36737 -0.182858,0.20206 -0.373799,0.36738 -0.424313,0.36738 -0.05051,0 0.05777,-0.16532 0.240626,-0.36738 z m -4.977016,-1.14805 -0.349922,-0.41329 0.413296,0.34992 c 0.388398,0.32884 0.496919,0.47667 0.349923,0.47667 -0.03486,0 -0.22084,-0.18598 -0.413297,-0.4133 z m 2.387938,0 -0.349923,-0.41329 0.413297,0.34992 c 0.388397,0.32884 0.496919,0.47667 0.349923,0.47667 -0.03486,0 -0.22084,-0.18598 -0.413297,-0.4133 z m 1.486953,0.0459 c 0.182858,-0.20206 0.373799,-0.36738 0.424313,-0.36738 0.05051,0 -0.05777,0.16532 -0.240626,0.36738 -0.182858,0.20205 -0.373799,0.36737 -0.424314,0.36737 -0.05051,0 0.05777,-0.16532 0.240627,-0.36737 z m 2.387937,0 c 0.182859,-0.20206 0.3738,-0.36738 0.424314,-0.36738 0.05051,0 -0.05777,0.16532 -0.240626,0.36738 -0.182859,0.20205 -0.3738,0.36737 -0.424314,0.36737 -0.05051,0 0.05777,-0.16532 0.240626,-0.36737 z m -5.160703,-1.14805 -0.349922,-0.4133 0.413297,0.34993 c 0.388397,0.32884 0.496919,0.47667 0.349922,0.47667 -0.03486,0 -0.220839,-0.18599 -0.413297,-0.4133 z m 4.058578,0.0459 c 0.182859,-0.20206 0.3738,-0.36737 0.424314,-0.36737 0.05051,0 -0.05777,0.16531 -0.240626,0.36737 -0.182859,0.20206 -0.3738,0.36738 -0.424314,0.36738 -0.05051,0 0.05777,-0.16532 0.240626,-0.36738 z m 2.387938,0 c 0.182858,-0.20206 0.373799,-0.36737 0.424314,-0.36737 0.05051,0 -0.05777,0.16531 -0.240627,0.36737 -0.182858,0.20206 -0.373799,0.36738 -0.424313,0.36738 -0.05051,0 0.05777,-0.16532 0.240626,-0.36738 z m -8.932275,-0.13776 c -0.228484,-0.29134 -0.221987,-0.29784 0.06935,-0.0694 0.176799,0.13866 0.321453,0.28331 0.321453,0.32146 0,0.15118 -0.150841,0.0539 -0.390805,-0.2521 z m 1.199947,-1.01029 -0.349923,-0.41329 0.413297,0.34992 c 0.388397,0.32884 0.496919,0.47667 0.349922,0.47667 -0.03486,0 -0.220839,-0.18598 -0.413296,-0.4133 z m 6.630203,0.0459 c 0.182858,-0.20206 0.373799,-0.36738 0.424313,-0.36738 0.05051,0 -0.05777,0.16532 -0.240626,0.36738 -0.182858,0.20205 -0.373799,0.36737 -0.424313,0.36737 -0.05051,0 0.05777,-0.16532 0.240626,-0.36737 z m -9.115963,-0.13777 c -0.228483,-0.29134 -0.221986,-0.29784 0.06935,-0.0693 0.1768,0.13865 0.321454,0.28331 0.321454,0.32145 0,0.15118 -0.150842,0.0539 -0.390806,-0.2521 z m 11.412057,0.2521 c 0,-0.0381 0.144654,-0.1828 0.321453,-0.32145 0.291339,-0.22849 0.297836,-0.22199 0.06935,0.0693 -0.239964,0.30598 -0.390806,0.40328 -0.390806,0.2521 z m -10.21211,-1.26238 -0.349923,-0.4133 0.413297,0.34992 c 0.388397,0.32885 0.496919,0.47668 0.349923,0.47668 -0.03486,0 -0.22084,-0.18599 -0.413297,-0.4133 z m 9.201828,0.0459 c 0.182859,-0.20206 0.373801,-0.36737 0.424315,-0.36737 0.05051,0 -0.05777,0.16531 -0.240627,0.36737 -0.182858,0.20206 -0.3738,0.36738 -0.424314,0.36738 -0.05051,0 0.05777,-0.16532 0.240626,-0.36738 z m -11.687587,-0.13776 c -0.228484,-0.29134 -0.221987,-0.29784 0.06935,-0.0694 0.176799,0.13866 0.321453,0.28331 0.321453,0.32146 0,0.15118 -0.150842,0.0539 -0.390805,-0.2521 z m 13.983681,0.2521 c 0,-0.0382 0.144654,-0.1828 0.321454,-0.32146 0.291339,-0.22848 0.297836,-0.22198 0.06935,0.0694 -0.239964,0.30597 -0.390807,0.40328 -0.390807,0.2521 z m -1.010281,-1.21646 c 0.182859,-0.20206 0.373801,-0.36738 0.424315,-0.36738 0.05051,0 -0.05777,0.16532 -0.240627,0.36738 -0.182859,0.20205 -0.373801,0.36737 -0.424315,0.36737 -0.05051,0 0.05777,-0.16532 0.240627,-0.36737 z M 11.96475,283.74516 c -0.228484,-0.29134 -0.221987,-0.29784 0.06935,-0.0693 0.176799,0.13865 0.321453,0.28331 0.321453,0.32145 0,0.15118 -0.150841,0.0539 -0.390805,-0.2521 z m 2.387938,0 c -0.228484,-0.29134 -0.221987,-0.29784 0.06935,-0.0693 0.176799,0.13865 0.321453,0.28331 0.321453,0.32145 0,0.15118 -0.150842,0.0539 -0.390805,-0.2521 z m 14.167369,0.2521 c 0,-0.0381 0.144654,-0.1828 0.321453,-0.32145 0.29134,-0.22849 0.297837,-0.22199 0.06935,0.0693 -0.239964,0.30598 -0.390806,0.40328 -0.390806,0.2521 z m -17.926986,-1.44607 -0.349922,-0.4133 0.413297,0.34993 c 0.227313,0.19245 0.413297,0.37844 0.413297,0.41329 0,0.147 -0.147831,0.0385 -0.476672,-0.34992 z m 2.473804,0.0918 c -0.228483,-0.29133 -0.221986,-0.29783 0.06935,-0.0693 0.1768,0.13866 0.321453,0.28331 0.321453,0.32145 0,0.15119 -0.150841,0.0539 -0.390805,-0.2521 z m 14.351057,0.2521 c 0,-0.0381 0.144654,-0.18279 0.321453,-0.32145 0.29134,-0.22848 0.297837,-0.22198 0.06935,0.0693 -0.239964,0.30598 -0.390806,0.40329 -0.390806,0.2521 z m 2.387938,0 c 0,-0.0381 0.144654,-0.18279 0.321453,-0.32145 0.291339,-0.22848 0.297836,-0.22198 0.06935,0.0693 -0.239964,0.30598 -0.390806,0.40329 -0.390806,0.2521 z m -20.4986113,-1.44606 -0.3499225,-0.4133 0.4132969,0.34992 c 0.2273133,0.19246 0.4132969,0.37844 0.4132969,0.4133 0,0.14699 -0.1478306,0.0385 -0.4766713,-0.34992 z m 2.4738033,0.0918 c -0.228483,-0.29134 -0.221986,-0.29784 0.06935,-0.0693 0.305977,0.23996 0.403282,0.3908 0.252101,0.3908 -0.03814,0 -0.182798,-0.14465 -0.321454,-0.32145 z m 17.198214,-0.0459 c 0.182859,-0.20206 0.3738,-0.36738 0.424314,-0.36738 0.05051,0 -0.05777,0.16532 -0.240627,0.36738 -0.182859,0.20205 -0.3738,0.36737 -0.424314,0.36737 -0.05051,0 0.05777,-0.16532 0.240627,-0.36737 z m 2.387938,0 c 0.182859,-0.20206 0.3738,-0.36738 0.424314,-0.36738 0.05051,0 -0.05777,0.16532 -0.240627,0.36738 -0.182859,0.20205 -0.3738,0.36737 -0.424314,0.36737 -0.05051,0 0.05777,-0.16532 0.240627,-0.36737 z m -23.345768,-1.14805 -0.3499225,-0.4133 0.413297,0.34993 c 0.2273133,0.19245 0.4132969,0.37844 0.4132969,0.41329 0,0.147 -0.1478307,0.0385 -0.4766714,-0.34992 z m 2.473804,0.0918 c -0.228484,-0.29133 -0.221987,-0.29783 0.06935,-0.0693 0.305977,0.23997 0.403282,0.39081 0.252101,0.39081 -0.03814,0 -0.182798,-0.14466 -0.321453,-0.32146 z m 19.769839,-0.0459 c 0.182859,-0.20205 0.3738,-0.36737 0.424314,-0.36737 0.05051,0 -0.05777,0.16532 -0.240627,0.36737 -0.182859,0.20206 -0.3738,0.36738 -0.424314,0.36738 -0.05052,0 0.05777,-0.16532 0.240627,-0.36738 z m 2.387937,0 c 0.182859,-0.20205 0.373801,-0.36737 0.424315,-0.36737 0.05051,0 -0.05777,0.16532 -0.240627,0.36737 -0.182859,0.20206 -0.373801,0.36738 -0.424315,0.36738 -0.05051,0 0.05777,-0.16532 0.240627,-0.36738 z m -23.5294548,-1.14804 -0.3499225,-0.4133 0.4132969,0.34992 c 0.2273133,0.19246 0.4132969,0.37844 0.4132969,0.4133 0,0.14699 -0.1478306,0.0385 -0.4766713,-0.34992 z m 22.4273298,0.0459 c 0.182859,-0.20206 0.373801,-0.36738 0.424315,-0.36738 0.05051,0 -0.05777,0.16532 -0.240627,0.36738 -0.182859,0.20205 -0.373801,0.36737 -0.424315,0.36737 -0.05051,0 0.05777,-0.16532 0.240627,-0.36737 z m -13.059266,-5.37286 -0.349923,-0.4133 0.413297,0.34992 c 0.388397,0.32884 0.496919,0.47667 0.349923,0.47667 -0.03486,0 -0.22084,-0.18598 -0.413297,-0.41329 z m 3.691203,0.0459 c 0.182858,-0.20206 0.373799,-0.36738 0.424313,-0.36738 0.05051,0 -0.05777,0.16532 -0.240626,0.36738 -0.182858,0.20206 -0.373799,0.36737 -0.424313,0.36737 -0.05051,0 0.05777,-0.16531 0.240626,-0.36737 z m -4.977016,-1.14805 -0.349922,-0.41329 0.413296,0.34992 c 0.388398,0.32884 0.496919,0.47667 0.349923,0.47667 -0.03486,0 -0.22084,-0.18598 -0.413297,-0.4133 z m 2.387938,0 -0.349923,-0.41329 0.413297,0.34992 c 0.388397,0.32884 0.496919,0.47667 0.349923,0.47667 -0.03486,0 -0.22084,-0.18598 -0.413297,-0.4133 z m 1.486953,0.0459 c 0.182858,-0.20205 0.373799,-0.36737 0.424313,-0.36737 0.05051,0 -0.05777,0.16532 -0.240626,0.36737 -0.182858,0.20206 -0.373799,0.36738 -0.424314,0.36738 -0.05051,0 0.05777,-0.16532 0.240627,-0.36738 z m 2.387937,0 c 0.182859,-0.20205 0.3738,-0.36737 0.424314,-0.36737 0.05051,0 -0.05777,0.16532 -0.240626,0.36737 -0.182859,0.20206 -0.3738,0.36738 -0.424314,0.36738 -0.05051,0 0.05777,-0.16532 0.240626,-0.36738 z m -5.160703,-1.14804 -0.349922,-0.4133 0.413297,0.34992 c 0.388397,0.32884 0.496919,0.47667 0.349922,0.47667 -0.03486,0 -0.220839,-0.18598 -0.413297,-0.41329 z m 4.058578,0.0459 c 0.182859,-0.20206 0.3738,-0.36738 0.424314,-0.36738 0.05051,0 -0.05777,0.16532 -0.240626,0.36738 -0.182859,0.20206 -0.3738,0.36737 -0.424314,0.36737 -0.05051,0 0.05777,-0.16531 0.240626,-0.36737 z m 2.387938,0 c 0.182858,-0.20206 0.373799,-0.36738 0.424314,-0.36738 0.05051,0 -0.05777,0.16532 -0.240627,0.36738 -0.182858,0.20206 -0.373799,0.36737 -0.424313,0.36737 -0.05051,0 0.05777,-0.16531 0.240626,-0.36737 z m -8.932275,-0.13777 c -0.228484,-0.29134 -0.221987,-0.29783 0.06935,-0.0693 0.305977,0.23996 0.403282,0.39081 0.252101,0.39081 -0.03814,0 -0.182798,-0.14466 -0.321453,-0.32146 z m 1.199947,-1.01028 -0.349923,-0.4133 0.413297,0.34993 c 0.227313,0.19245 0.413297,0.37844 0.413297,0.41329 0,0.147 -0.147831,0.0385 -0.476671,-0.34992 z m 6.630203,0.0459 c 0.182858,-0.20205 0.373799,-0.36737 0.424313,-0.36737 0.05051,0 -0.05777,0.16532 -0.240626,0.36737 -0.182858,0.20206 -0.373799,0.36738 -0.424313,0.36738 -0.05051,0 0.05777,-0.16532 0.240626,-0.36738 z m -9.115963,-0.13776 c -0.228483,-0.29134 -0.221986,-0.29784 0.06935,-0.0693 0.305978,0.23996 0.403283,0.3908 0.252101,0.3908 -0.03814,0 -0.182797,-0.14465 -0.321453,-0.32145 z m 11.412057,0.2521 c 0,-0.0381 0.144654,-0.1828 0.321453,-0.32145 0.291339,-0.22849 0.297836,-0.22199 0.06935,0.0693 -0.239964,0.30598 -0.390806,0.40328 -0.390806,0.2521 z m -10.21211,-1.26238 -0.349923,-0.4133 0.413297,0.34992 c 0.388397,0.32884 0.496919,0.47667 0.349923,0.47667 -0.03486,0 -0.22084,-0.18598 -0.413297,-0.41329 z m 9.201828,0.0459 c 0.182859,-0.20206 0.373801,-0.36738 0.424315,-0.36738 0.05051,0 -0.05777,0.16532 -0.240627,0.36738 -0.182858,0.20205 -0.3738,0.36737 -0.424314,0.36737 -0.05051,0 0.05777,-0.16532 0.240626,-0.36737 z m -11.687587,-0.13777 c -0.228484,-0.29134 -0.221987,-0.29783 0.06935,-0.0693 0.305977,0.23996 0.403282,0.39081 0.252101,0.39081 -0.03814,0 -0.182798,-0.14466 -0.321453,-0.32146 z m 13.983681,0.2521 c 0,-0.0381 0.144654,-0.18279 0.321454,-0.32145 0.291339,-0.22848 0.297836,-0.22199 0.06935,0.0693 -0.239964,0.30598 -0.390807,0.40329 -0.390807,0.2521 z m -1.010281,-1.21646 c 0.182859,-0.20205 0.373801,-0.36737 0.424315,-0.36737 0.05051,0 -0.05777,0.16532 -0.240627,0.36737 -0.182859,0.20206 -0.373801,0.36738 -0.424315,0.36738 -0.05051,0 0.05777,-0.16532 0.240627,-0.36738 z M 11.96475,268.31541 c -0.228484,-0.29134 -0.221987,-0.29784 0.06935,-0.0693 0.305977,0.23996 0.403282,0.3908 0.252101,0.3908 -0.03814,0 -0.182798,-0.14465 -0.321453,-0.32145 z m 2.387938,0 c -0.228484,-0.29134 -0.221987,-0.29784 0.06935,-0.0693 0.176799,0.13865 0.321453,0.2833 0.321453,0.32145 0,0.15118 -0.150842,0.0539 -0.390805,-0.2521 z m 14.167369,0.2521 c 0,-0.0382 0.144654,-0.1828 0.321453,-0.32145 0.29134,-0.22849 0.297837,-0.22199 0.06935,0.0693 -0.239964,0.30597 -0.390806,0.40328 -0.390806,0.2521 z m -17.926986,-1.44607 -0.349922,-0.4133 0.413297,0.34992 c 0.388397,0.32885 0.496919,0.47668 0.349922,0.47668 -0.03486,0 -0.220839,-0.18599 -0.413297,-0.4133 z m 2.473804,0.0918 c -0.228483,-0.29134 -0.221986,-0.29783 0.06935,-0.0693 0.305977,0.23996 0.403282,0.39081 0.252101,0.39081 -0.03814,0 -0.182797,-0.14466 -0.321453,-0.32146 z m 14.351057,0.2521 c 0,-0.0381 0.144654,-0.18279 0.321453,-0.32145 0.29134,-0.22848 0.297837,-0.22199 0.06935,0.0693 -0.239964,0.30598 -0.390806,0.40328 -0.390806,0.2521 z m 2.387938,0 c 0,-0.0381 0.144654,-0.18279 0.321453,-0.32145 0.291339,-0.22848 0.297836,-0.22199 0.06935,0.0693 -0.239964,0.30598 -0.390806,0.40328 -0.390806,0.2521 z m -20.4986113,-1.44607 -0.3499225,-0.41329 0.4132969,0.34992 c 0.3883972,0.32884 0.496919,0.47667 0.3499225,0.47667 -0.034856,0 -0.2208396,-0.18598 -0.4132969,-0.4133 z m 2.4738033,0.0918 c -0.228483,-0.29134 -0.221986,-0.29784 0.06935,-0.0693 0.176799,0.13865 0.321453,0.2833 0.321453,0.32145 0,0.15118 -0.150842,0.0539 -0.390806,-0.2521 z m 17.198214,-0.0459 c 0.182859,-0.20206 0.3738,-0.36738 0.424314,-0.36738 0.05051,0 -0.05777,0.16532 -0.240627,0.36738 -0.182859,0.20205 -0.3738,0.36737 -0.424314,0.36737 -0.05051,0 0.05777,-0.16532 0.240627,-0.36737 z m 2.387938,0 c 0.182859,-0.20206 0.3738,-0.36738 0.424314,-0.36738 0.05051,0 -0.05777,0.16532 -0.240627,0.36738 -0.182859,0.20205 -0.3738,0.36737 -0.424314,0.36737 -0.05051,0 0.05777,-0.16532 0.240627,-0.36737 z m -23.345768,-1.14805 -0.3499225,-0.4133 0.413297,0.34992 c 0.3883971,0.32884 0.4969189,0.47668 0.3499224,0.47668 -0.034856,0 -0.2208396,-0.18599 -0.4132969,-0.4133 z m 2.473804,0.0918 c -0.228484,-0.29134 -0.221987,-0.29783 0.06935,-0.0693 0.305977,0.23996 0.403282,0.39081 0.252101,0.39081 -0.03814,0 -0.182798,-0.14466 -0.321453,-0.32146 z m 19.769839,-0.0459 c 0.182859,-0.20206 0.3738,-0.36737 0.424314,-0.36737 0.05051,0 -0.05777,0.16531 -0.240627,0.36737 -0.182859,0.20206 -0.3738,0.36738 -0.424314,0.36738 -0.05052,0 0.05777,-0.16532 0.240627,-0.36738 z m 2.387937,0 c 0.182859,-0.20206 0.373801,-0.36737 0.424315,-0.36737 0.05051,0 -0.05777,0.16531 -0.240627,0.36737 -0.182859,0.20206 -0.373801,0.36738 -0.424315,0.36738 -0.05051,0 0.05777,-0.16532 0.240627,-0.36738 z m -23.5294548,-1.14805 -0.3499225,-0.41329 0.4132969,0.34992 c 0.3883971,0.32884 0.496919,0.47667 0.3499225,0.47667 -0.034856,0 -0.2208396,-0.18598 -0.4132969,-0.4133 z m 22.4273298,0.0459 c 0.182859,-0.20206 0.373801,-0.36738 0.424315,-0.36738 0.05051,0 -0.05777,0.16532 -0.240627,0.36738 -0.182859,0.20205 -0.373801,0.36737 -0.424315,0.36737 -0.05051,0 0.05777,-0.16532 0.240627,-0.36737 z"
         style="fill:#909090;stroke-width:0.18368752" />
      <path
         id="path3855"
         d="m 19.042697,289.715 -0.349922,-0.41329 0.413297,0.34992 c 0.388397,0.32884 0.496919,0.47667 0.349922,0.47667 -0.03486,0 -0.220839,-0.18598 -0.413297,-0.4133 z m 2.589078,0.0459 c 0.182858,-0.20206 0.3738,-0.36738 0.424314,-0.36738 0.05051,0 -0.05777,0.16532 -0.240626,0.36738 -0.182859,0.20205 -0.3738,0.36737 -0.424314,0.36737 -0.05051,0 0.05777,-0.16532 0.240626,-0.36737 z m -3.87489,-1.14805 -0.349923,-0.4133 0.413297,0.34993 c 0.388397,0.32884 0.496919,0.47667 0.349923,0.47667 -0.03486,0 -0.22084,-0.18599 -0.413297,-0.4133 z m 5.160703,0.0459 c 0.182858,-0.20206 0.373799,-0.36737 0.424313,-0.36737 0.05051,0 -0.05777,0.16531 -0.240626,0.36737 -0.182858,0.20206 -0.373799,0.36738 -0.424313,0.36738 -0.05051,0 0.05777,-0.16532 0.240626,-0.36738 z m -3.874891,-0.78067 -0.349922,-0.4133 0.413297,0.34993 c 0.388397,0.32884 0.496919,0.47667 0.349922,0.47667 -0.03486,0 -0.220839,-0.18599 -0.413297,-0.4133 z m 2.589078,0.0459 c 0.182858,-0.20206 0.3738,-0.36737 0.424314,-0.36737 0.05051,0 -0.05777,0.16531 -0.240626,0.36737 -0.182859,0.20206 -0.3738,0.36738 -0.424314,0.36738 -0.05051,0 0.05777,-0.16532 0.240626,-0.36738 z m -5.160703,-0.4133 -0.349923,-0.41329 0.413297,0.34992 c 0.388398,0.32884 0.496919,0.47667 0.349923,0.47667 -0.03486,0 -0.22084,-0.18598 -0.413297,-0.4133 z m 7.732328,0.0459 c 0.182859,-0.20206 0.3738,-0.36738 0.424314,-0.36738 0.05051,0 -0.05777,0.16532 -0.240626,0.36738 -0.182858,0.20205 -0.3738,0.36737 -0.424314,0.36737 -0.05051,0 0.05777,-0.16532 0.240626,-0.36737 z m -6.446515,-0.78068 -0.349923,-0.41329 0.413297,0.34992 c 0.388397,0.32884 0.496919,0.47667 0.349923,0.47667 -0.03486,0 -0.22084,-0.18598 -0.413297,-0.4133 z m 5.068859,0.16026 c 0,-0.0381 0.144654,-0.1828 0.321453,-0.32145 0.291339,-0.22849 0.297836,-0.22199 0.06935,0.0694 -0.239963,0.30598 -0.390805,0.40328 -0.390805,0.2521 z m -7.640485,-0.52763 -0.349922,-0.4133 0.413297,0.34992 c 0.388397,0.32885 0.496919,0.47668 0.349922,0.47668 -0.03486,0 -0.220839,-0.18599 -0.413297,-0.4133 z m 10.303954,0.0459 c 0.182859,-0.20206 0.3738,-0.36737 0.424315,-0.36737 0.05051,0 -0.05777,0.16531 -0.240627,0.36737 -0.18286,0.20206 -0.373801,0.36738 -0.424315,0.36738 -0.05051,0 0.05777,-0.16532 0.240627,-0.36738 z m -9.018141,-0.78067 -0.349923,-0.4133 0.413297,0.34992 c 0.388398,0.32885 0.496919,0.47668 0.349923,0.47668 -0.03486,0 -0.22084,-0.18599 -0.413297,-0.4133 z m 7.640485,0.16026 c 0,-0.0381 0.144654,-0.1828 0.321453,-0.32146 0.291338,-0.22848 0.297835,-0.22198 0.06935,0.0694 -0.239964,0.30597 -0.390805,0.40328 -0.390805,0.2521 z m -10.21211,-0.52764 -0.349923,-0.41329 0.413297,0.34992 c 0.388397,0.32884 0.496919,0.47667 0.349923,0.47667 -0.03486,0 -0.22084,-0.18598 -0.413297,-0.4133 z m 12.875579,0.0459 c 0.182859,-0.20206 0.3738,-0.36738 0.424314,-0.36738 0.05051,0 -0.05777,0.16532 -0.240627,0.36738 -0.182859,0.20205 -0.3738,0.36737 -0.424314,0.36737 -0.05051,0 0.05777,-0.16532 0.240627,-0.36737 z m -11.773454,-0.96436 -0.349923,-0.4133 0.413297,0.34992 c 0.388397,0.32884 0.496919,0.47667 0.349923,0.47667 -0.03486,0 -0.22084,-0.18598 -0.413297,-0.41329 z m 10.395797,0.34394 c 0,-0.0381 0.144654,-0.1828 0.321453,-0.32145 0.29134,-0.22849 0.297837,-0.22199 0.06935,0.0694 -0.239963,0.30598 -0.390806,0.40328 -0.390806,0.2521 z m -12.783735,-0.52763 -0.349922,-0.4133 0.413296,0.34992 c 0.388398,0.32885 0.496919,0.47668 0.349923,0.47668 -0.03486,0 -0.22084,-0.18599 -0.413297,-0.4133 z m 15.447204,0.0459 c 0.182859,-0.20206 0.373801,-0.36737 0.424315,-0.36737 0.05051,0 -0.05777,0.16531 -0.240627,0.36737 -0.182859,0.20206 -0.373801,0.36738 -0.424315,0.36738 -0.05051,0 0.05777,-0.16532 0.240627,-0.36738 z m -14.345079,-0.96436 -0.349922,-0.4133 0.413297,0.34993 c 0.388397,0.32884 0.496919,0.47667 0.349922,0.47667 -0.03486,0 -0.220839,-0.18599 -0.413297,-0.4133 z m 13.242954,0.0459 c 0.182859,-0.20205 0.373801,-0.36737 0.424315,-0.36737 0.05051,0 -0.05777,0.16532 -0.240627,0.36737 -0.182859,0.20206 -0.373801,0.36738 -0.424315,0.36738 -0.05051,0 0.05777,-0.16532 0.240627,-0.36738 z m -15.630892,-0.22961 -0.349922,-0.41329 0.413297,0.34992 c 0.227313,0.19246 0.413297,0.37844 0.413297,0.4133 0,0.14699 -0.147831,0.0385 -0.476672,-0.34993 z m 18.01883,0.0459 c 0.182859,-0.20206 0.3738,-0.36738 0.424314,-0.36738 0.05051,0 -0.05777,0.16532 -0.240627,0.36738 -0.182859,0.20205 -0.3738,0.36737 -0.424314,0.36737 -0.05051,0 0.05777,-0.16532 0.240627,-0.36737 z m -16.916704,-0.96436 -0.349923,-0.4133 0.413297,0.34992 c 0.388397,0.32884 0.496919,0.47667 0.349922,0.47667 -0.03486,0 -0.220839,-0.18598 -0.413296,-0.41329 z m 15.814579,0.0459 c 0.182859,-0.20206 0.3738,-0.36738 0.424314,-0.36738 0.05051,0 -0.05777,0.16532 -0.240627,0.36738 -0.182859,0.20205 -0.3738,0.36737 -0.424314,0.36737 -0.05051,0 0.05777,-0.16532 0.240627,-0.36737 z m 2.387938,-0.18369 c 0.182859,-0.20206 0.3738,-0.36737 0.424314,-0.36737 0.05051,0 -0.05777,0.16531 -0.240627,0.36737 -0.182859,0.20206 -0.3738,0.36738 -0.424314,0.36738 -0.05051,0 0.05777,-0.16532 0.240627,-0.36738 z m -20.7741427,-0.22961 -0.3499226,-0.4133 0.413297,0.34993 c 0.2273133,0.19245 0.4132973,0.37844 0.4132973,0.41329 0,0.147 -0.147831,0.0385 -0.4766717,-0.34992 z m 1.2858127,-0.73475 -0.349923,-0.4133 0.413297,0.34993 c 0.227314,0.19245 0.413297,0.37844 0.413297,0.41329 0,0.147 -0.14783,0.0385 -0.476671,-0.34992 z m 18.386204,0.0459 c 0.18286,-0.20205 0.373801,-0.36737 0.424315,-0.36737 0.05051,0 -0.05777,0.16532 -0.240627,0.36737 -0.182859,0.20206 -0.3738,0.36738 -0.424315,0.36738 -0.05051,0 0.05777,-0.16532 0.240627,-0.36738 z m -20.9578294,-0.41329 -0.3499225,-0.4133 0.4132969,0.34992 c 0.2273133,0.19246 0.4132969,0.37844 0.4132969,0.4133 0,0.14699 -0.1478306,0.0385 -0.4766713,-0.34992 z m 23.5294554,0.0459 c 0.182859,-0.20206 0.3738,-0.36738 0.424314,-0.36738 0.05051,0 -0.05777,0.16532 -0.240627,0.36738 -0.182859,0.20205 -0.3738,0.36737 -0.424314,0.36737 -0.05051,0 0.05777,-0.16532 0.240627,-0.36737 z m -22.2436427,-0.78067 -0.3499226,-0.4133 0.413297,0.34992 c 0.2273133,0.19246 0.4132973,0.37844 0.4132973,0.4133 0,0.14699 -0.147831,0.0385 -0.4766717,-0.34992 z m 20.9578297,0.0459 c 0.182859,-0.20206 0.373801,-0.36738 0.424315,-0.36738 0.05051,0 -0.05777,0.16532 -0.240627,0.36738 -0.182859,0.20205 -0.373801,0.36737 -0.424315,0.36737 -0.05051,0 0.05777,-0.16532 0.240627,-0.36737 z M 7.3725619,279.70403 c -0.2284835,-0.29133 -0.2219864,-0.29783 0.069352,-0.0693 0.1767993,0.13866 0.3214532,0.28331 0.3214532,0.32146 0,0.15118 -0.1508415,0.0539 -0.3908054,-0.25211 z m 25.7396831,0.25211 c 0,-0.0382 0.144654,-0.1828 0.321453,-0.32146 0.29134,-0.22848 0.297837,-0.22198 0.06935,0.0693 -0.239964,0.30598 -0.390806,0.40329 -0.390806,0.25211 z m -24.5397364,-1.0787 -0.3499225,-0.4133 0.4132969,0.34993 c 0.3883972,0.32884 0.496919,0.47667 0.3499225,0.47667 -0.034856,0 -0.2208396,-0.18599 -0.4132969,-0.4133 z m 23.5294554,0.0459 c 0.182859,-0.20205 0.3738,-0.36737 0.424314,-0.36737 0.05051,0 -0.05777,0.16532 -0.240627,0.36737 -0.182859,0.20206 -0.3738,0.36738 -0.424314,0.36738 -0.05051,0 0.05777,-0.16532 0.240627,-0.36738 z m -12.031533,-3.74418 c 0,-0.0387 0.204147,-0.10945 0.45366,-0.15715 0.249513,-0.0477 0.409954,-0.016 0.356535,0.0704 -0.09406,0.1522 -0.810195,0.22885 -0.810195,0.0867 z m -1.027734,-0.89393 -0.349922,-0.41329 0.413297,0.34992 c 0.388397,0.32884 0.496919,0.47667 0.349922,0.47667 -0.03486,0 -0.220839,-0.18598 -0.413297,-0.4133 z m 2.589078,0.0459 c 0.182858,-0.20205 0.3738,-0.36737 0.424314,-0.36737 0.05051,0 -0.05777,0.16532 -0.240626,0.36737 -0.182859,0.20206 -0.3738,0.36738 -0.424314,0.36738 -0.05051,0 0.05777,-0.16532 0.240626,-0.36738 z m -3.87489,-1.14804 -0.349923,-0.4133 0.413297,0.34992 c 0.388397,0.32884 0.496919,0.47667 0.349923,0.47667 -0.03486,0 -0.22084,-0.18598 -0.413297,-0.41329 z m 5.160703,0.0459 c 0.182858,-0.20206 0.373799,-0.36738 0.424313,-0.36738 0.05051,0 -0.05777,0.16532 -0.240626,0.36738 -0.182858,0.20206 -0.373799,0.36737 -0.424313,0.36737 -0.05051,0 0.05777,-0.16531 0.240626,-0.36737 z m -3.874891,-0.78067 -0.349922,-0.4133 0.413297,0.34992 c 0.388397,0.32884 0.496919,0.47667 0.349922,0.47667 -0.03486,0 -0.220839,-0.18598 -0.413297,-0.41329 z m 2.589078,0.0459 c 0.182858,-0.20206 0.3738,-0.36738 0.424314,-0.36738 0.05051,0 -0.05777,0.16532 -0.240626,0.36738 -0.182859,0.20206 -0.3738,0.36737 -0.424314,0.36737 -0.05051,0 0.05777,-0.16531 0.240626,-0.36737 z m -5.160703,-0.4133 -0.349923,-0.41329 0.413297,0.34992 c 0.227314,0.19245 0.413297,0.37844 0.413297,0.41329 0,0.147 -0.14783,0.0385 -0.476671,-0.34992 z m 7.732328,0.0459 c 0.182859,-0.20205 0.3738,-0.36737 0.424314,-0.36737 0.05051,0 -0.05777,0.16532 -0.240626,0.36737 -0.182858,0.20206 -0.3738,0.36738 -0.424314,0.36738 -0.05051,0 0.05777,-0.16532 0.240626,-0.36738 z m -6.446515,-0.78067 -0.349923,-0.4133 0.413297,0.34993 c 0.388397,0.32884 0.496919,0.47667 0.349923,0.47667 -0.03486,0 -0.22084,-0.18598 -0.413297,-0.4133 z m 5.068859,0.16026 c 0,-0.0381 0.144654,-0.1828 0.321453,-0.32145 0.291339,-0.22849 0.297836,-0.22199 0.06935,0.0693 -0.239963,0.30598 -0.390805,0.40328 -0.390805,0.2521 z m -7.640485,-0.52763 -0.349922,-0.4133 0.413297,0.34992 c 0.388397,0.32884 0.496919,0.47667 0.349922,0.47667 -0.03486,0 -0.220839,-0.18598 -0.413297,-0.41329 z m 10.303954,0.0459 c 0.182859,-0.20206 0.3738,-0.36738 0.424315,-0.36738 0.05051,0 -0.05777,0.16532 -0.240627,0.36738 -0.18286,0.20206 -0.373801,0.36737 -0.424315,0.36737 -0.05051,0 0.05777,-0.16531 0.240627,-0.36737 z m -9.018141,-0.78067 -0.349923,-0.4133 0.413297,0.34992 c 0.227314,0.19246 0.413297,0.37844 0.413297,0.4133 0,0.147 -0.14783,0.0385 -0.476671,-0.34992 z m 7.640485,0.16025 c 0,-0.0381 0.144654,-0.18279 0.321453,-0.32145 0.291338,-0.22848 0.297835,-0.22199 0.06935,0.0694 -0.239964,0.30598 -0.390805,0.40329 -0.390805,0.2521 z m -10.21211,-0.52763 -0.349923,-0.4133 0.413297,0.34993 c 0.388397,0.32884 0.496919,0.47667 0.349923,0.47667 -0.03486,0 -0.22084,-0.18598 -0.413297,-0.4133 z m 12.875579,0.0459 c 0.182859,-0.20205 0.3738,-0.36737 0.424314,-0.36737 0.05051,0 -0.05777,0.16532 -0.240627,0.36737 -0.182859,0.20206 -0.3738,0.36738 -0.424314,0.36738 -0.05051,0 0.05777,-0.16532 0.240627,-0.36738 z m -11.773454,-0.96436 -0.349923,-0.41329 0.413297,0.34992 c 0.227314,0.19246 0.413297,0.37844 0.413297,0.4133 0,0.14699 -0.14783,0.0385 -0.476671,-0.34993 z m 10.395797,0.34395 c 0,-0.0381 0.144654,-0.1828 0.321453,-0.32145 0.29134,-0.22849 0.297837,-0.22199 0.06935,0.0693 -0.239963,0.30597 -0.390806,0.40328 -0.390806,0.2521 z m -12.783735,-0.52763 -0.349922,-0.4133 0.413296,0.34992 c 0.388398,0.32884 0.496919,0.47667 0.349923,0.47667 -0.03486,0 -0.22084,-0.18598 -0.413297,-0.41329 z m 15.447204,0.0459 c 0.182859,-0.20206 0.373801,-0.36738 0.424315,-0.36738 0.05051,0 -0.05777,0.16532 -0.240627,0.36738 -0.182859,0.20205 -0.373801,0.36737 -0.424315,0.36737 -0.05051,0 0.05777,-0.16532 0.240627,-0.36737 z m -14.345079,-0.96436 -0.349922,-0.4133 0.413297,0.34992 c 0.227313,0.19246 0.413297,0.37845 0.413297,0.4133 0,0.147 -0.147831,0.0385 -0.476672,-0.34992 z m 13.242954,0.0459 c 0.182859,-0.20206 0.373801,-0.36737 0.424315,-0.36737 0.05051,0 -0.05777,0.16531 -0.240627,0.36737 -0.182859,0.20206 -0.373801,0.36738 -0.424315,0.36738 -0.05051,0 0.05777,-0.16532 0.240627,-0.36738 z m -15.630892,-0.22961 -0.349922,-0.4133 0.413297,0.34993 c 0.388397,0.32884 0.496919,0.47667 0.349922,0.47667 -0.03486,0 -0.220839,-0.18599 -0.413297,-0.4133 z m 18.01883,0.0459 c 0.182859,-0.20205 0.3738,-0.36737 0.424314,-0.36737 0.05051,0 -0.05777,0.16532 -0.240627,0.36737 -0.182859,0.20206 -0.3738,0.36738 -0.424314,0.36738 -0.05051,0 0.05777,-0.16532 0.240627,-0.36738 z m -16.916704,-0.96436 -0.349923,-0.41329 0.413297,0.34992 c 0.388397,0.32884 0.496919,0.47667 0.349922,0.47667 -0.03486,0 -0.220839,-0.18598 -0.413296,-0.4133 z m 15.814579,0.0459 c 0.182859,-0.20206 0.3738,-0.36738 0.424314,-0.36738 0.05051,0 -0.05777,0.16532 -0.240627,0.36738 -0.182859,0.20205 -0.3738,0.36737 -0.424314,0.36737 -0.05051,0 0.05777,-0.16532 0.240627,-0.36737 z m 2.387938,-0.18369 c 0.182859,-0.20206 0.3738,-0.36738 0.424314,-0.36738 0.05051,0 -0.05777,0.16532 -0.240627,0.36738 -0.182859,0.20205 -0.3738,0.36737 -0.424314,0.36737 -0.05051,0 0.05777,-0.16532 0.240627,-0.36737 z m -20.7741427,-0.22961 -0.3499226,-0.4133 0.413297,0.34992 c 0.3883973,0.32885 0.4969193,0.47668 0.3499223,0.47668 -0.03486,0 -0.220839,-0.18599 -0.4132967,-0.4133 z m 1.2858127,-0.73475 -0.349923,-0.4133 0.413297,0.34992 c 0.388397,0.32884 0.496919,0.47668 0.349923,0.47668 -0.03486,0 -0.22084,-0.18599 -0.413297,-0.4133 z m 18.386204,0.0459 c 0.18286,-0.20206 0.373801,-0.36737 0.424315,-0.36737 0.05051,0 -0.05777,0.16531 -0.240627,0.36737 -0.182859,0.20206 -0.3738,0.36738 -0.424315,0.36738 -0.05051,0 0.05777,-0.16532 0.240627,-0.36738 z m -20.9578294,-0.4133 -0.3499225,-0.41329 0.4132969,0.34992 c 0.3883972,0.32884 0.496919,0.47667 0.3499225,0.47667 -0.034856,0 -0.2208396,-0.18598 -0.4132969,-0.4133 z m 23.5294554,0.0459 c 0.182859,-0.20206 0.3738,-0.36738 0.424314,-0.36738 0.05051,0 -0.05777,0.16532 -0.240627,0.36738 -0.182859,0.20205 -0.3738,0.36737 -0.424314,0.36737 -0.05051,0 0.05777,-0.16532 0.240627,-0.36737 z m -22.2436427,-0.78068 -0.3499226,-0.41329 0.413297,0.34992 c 0.3883973,0.32884 0.4969193,0.47667 0.3499223,0.47667 -0.03486,0 -0.220839,-0.18598 -0.4132967,-0.4133 z m 20.9578297,0.0459 c 0.182859,-0.20206 0.373801,-0.36738 0.424315,-0.36738 0.05051,0 -0.05777,0.16532 -0.240627,0.36738 -0.182859,0.20205 -0.373801,0.36737 -0.424315,0.36737 -0.05051,0 0.05777,-0.16532 0.240627,-0.36737 z M 7.3725619,264.27428 c -0.2284835,-0.29134 -0.2219864,-0.29783 0.069352,-0.0693 0.3059772,0.23996 0.4032821,0.39081 0.252101,0.39081 -0.038144,0 -0.1827976,-0.14466 -0.3214532,-0.32146 z m 25.7396831,0.2521 c 0,-0.0381 0.144654,-0.18279 0.321453,-0.32145 0.29134,-0.22848 0.297837,-0.22199 0.06935,0.0693 -0.239964,0.30598 -0.390806,0.40328 -0.390806,0.2521 z m -24.5397364,-1.07869 -0.3499225,-0.4133 0.4132969,0.34992 c 0.3883972,0.32884 0.496919,0.47668 0.3499225,0.47668 -0.034856,0 -0.2208396,-0.18599 -0.4132969,-0.4133 z m 23.5294554,0.0459 c 0.182859,-0.20206 0.3738,-0.36737 0.424314,-0.36737 0.05051,0 -0.05777,0.16531 -0.240627,0.36737 -0.182859,0.20206 -0.3738,0.36738 -0.424314,0.36738 -0.05051,0 0.05777,-0.16532 0.240627,-0.36738 z"
         style="fill:#707070;stroke-width:0.18368752" />
      <path
         id="path3853"
         d="m 19.495938,289.99054 c -0.228483,-0.29134 -0.221986,-0.29784 0.06935,-0.0694 0.1768,0.13866 0.321454,0.28331 0.321454,0.32146 0,0.15118 -0.150842,0.0539 -0.390806,-0.2521 z m 1.492931,0.2521 c 0,-0.0381 0.144654,-0.1828 0.321453,-0.32146 0.291339,-0.22848 0.297836,-0.22198 0.06935,0.0694 -0.239964,0.30597 -0.390805,0.40328 -0.390805,0.2521 z m -2.680922,-1.26239 -0.349922,-0.41329 0.413297,0.34992 c 0.388397,0.32884 0.496919,0.47667 0.349922,0.47667 -0.03486,0 -0.220839,-0.18598 -0.413297,-0.4133 z m 4.058578,0.0459 c 0.182859,-0.20206 0.3738,-0.36738 0.424314,-0.36738 0.05051,0 -0.05777,0.16532 -0.240626,0.36738 -0.182859,0.20205 -0.3738,0.36737 -0.424314,0.36737 -0.05051,0 0.05777,-0.16532 0.240626,-0.36737 z m -2.686899,-0.50514 c -0.228484,-0.29134 -0.221987,-0.29784 0.06935,-0.0694 0.176799,0.13866 0.321453,0.28331 0.321453,0.32146 0,0.15118 -0.150841,0.0539 -0.390805,-0.2521 z m 1.125555,0.2521 c 0,-0.0382 0.144654,-0.1828 0.321453,-0.32146 0.291339,-0.22848 0.297836,-0.22198 0.06935,0.0694 -0.239964,0.30597 -0.390806,0.40328 -0.390806,0.2521 z m -3.783046,-0.89501 -0.349923,-0.4133 0.413297,0.34993 c 0.388397,0.32884 0.496919,0.47667 0.349922,0.47667 -0.03486,0 -0.220839,-0.18599 -0.413296,-0.4133 z m 6.630203,0.0459 c 0.182858,-0.20206 0.373799,-0.36737 0.424313,-0.36737 0.05051,0 -0.05777,0.16531 -0.240626,0.36737 -0.182858,0.20206 -0.373799,0.36738 -0.424313,0.36738 -0.05051,0 0.05777,-0.16532 0.240626,-0.36738 z m -5.160703,-0.4133 -0.349923,-0.41329 0.413297,0.34992 c 0.388397,0.32884 0.496919,0.47667 0.349923,0.47667 -0.03486,0 -0.22084,-0.18598 -0.413297,-0.4133 z m 3.783046,-0.0459 c 0.237278,-0.25257 0.472744,-0.45922 0.523258,-0.45922 0.05051,0 -0.102293,0.20665 -0.33957,0.45922 -0.237278,0.25257 -0.472743,0.45922 -0.523257,0.45922 -0.05052,0 0.102292,-0.20665 0.339569,-0.45922 z m -6.538359,-0.68883 -0.349923,-0.41329 0.413297,0.34992 c 0.388397,0.32884 0.496919,0.47667 0.349923,0.47667 -0.03486,0 -0.22084,-0.18598 -0.413297,-0.4133 z m 9.201828,0.0459 c 0.182859,-0.20206 0.373801,-0.36738 0.424315,-0.36738 0.05051,0 -0.05777,0.16532 -0.240627,0.36738 -0.182858,0.20205 -0.3738,0.36737 -0.424314,0.36737 -0.05051,0 0.05777,-0.16532 0.240626,-0.36737 z m -7.732328,-0.4133 -0.349922,-0.4133 0.413296,0.34992 c 0.388398,0.32885 0.496919,0.47668 0.349923,0.47668 -0.03486,0 -0.22084,-0.18599 -0.413297,-0.4133 z m 6.354672,-0.0459 c 0.237277,-0.25257 0.472743,-0.45922 0.523257,-0.45922 0.05052,0 -0.102292,0.20665 -0.339569,0.45922 -0.237278,0.25257 -0.472744,0.45922 -0.523258,0.45922 -0.05051,0 0.102293,-0.20665 0.33957,-0.45922 z m -9.109985,-0.68883 -0.349922,-0.4133 0.413297,0.34992 c 0.388397,0.32885 0.496919,0.47668 0.349922,0.47668 -0.03486,0 -0.220839,-0.18599 -0.413297,-0.4133 z m 11.773454,0.0459 c 0.182859,-0.20206 0.373801,-0.36737 0.424315,-0.36737 0.05051,0 -0.05777,0.16531 -0.240627,0.36737 -0.182859,0.20206 -0.373801,0.36738 -0.424315,0.36738 -0.05051,0 0.05777,-0.16532 0.240627,-0.36738 z m -10.392247,-0.50514 -0.445317,-0.50514 0.505141,0.44531 c 0.47213,0.41622 0.589378,0.56497 0.445316,0.56497 -0.0329,0 -0.260216,-0.22731 -0.50514,-0.50514 z m 9.014591,0.0459 c 0.237277,-0.25257 0.472743,-0.45922 0.523257,-0.45922 0.05052,0 -0.102291,0.20665 -0.33957,0.45922 -0.237277,0.25257 -0.472743,0.45922 -0.523257,0.45922 -0.05051,0 0.102292,-0.20665 0.33957,-0.45922 z m -11.68161,-0.68883 -0.349923,-0.41329 0.413297,0.34992 c 0.388397,0.32884 0.496919,0.47667 0.349923,0.47667 -0.03486,0 -0.22084,-0.18598 -0.413297,-0.4133 z m 14.436922,-0.0459 c 0.237279,-0.25257 0.472744,-0.45922 0.523258,-0.45922 0.05051,0 -0.102292,0.20665 -0.33957,0.45922 -0.237278,0.25257 -0.472744,0.45922 -0.523258,0.45922 -0.05051,0 0.102292,-0.20665 0.33957,-0.45922 z m -13.055716,-0.4133 -0.445316,-0.50514 0.50514,0.44532 c 0.277828,0.24493 0.505141,0.47224 0.505141,0.50514 0,0.14406 -0.14875,0.0268 -0.564965,-0.44532 z m 11.586216,0.0459 c 0.237279,-0.25257 0.472744,-0.45922 0.523258,-0.45922 0.05051,0 -0.102292,0.20665 -0.33957,0.45922 -0.237279,0.25257 -0.472744,0.45922 -0.523258,0.45922 -0.05051,0 0.102292,-0.20665 0.33957,-0.45922 z m -14.341529,-0.78068 -0.445316,-0.50514 0.505141,0.44532 c 0.47213,0.41622 0.589377,0.56497 0.445316,0.56497 -0.0329,0 -0.260217,-0.22732 -0.505141,-0.50515 z m 17.096842,0.0459 c 0.237278,-0.25257 0.472744,-0.45922 0.523258,-0.45922 0.05051,0 -0.102292,0.20665 -0.33957,0.45922 -0.237279,0.25257 -0.472744,0.45922 -0.523258,0.45922 -0.05051,0 0.102292,-0.20665 0.33957,-0.45922 z m -1.4695,-0.36738 c 0.237278,-0.25257 0.472744,-0.45922 0.523258,-0.45922 0.05051,0 -0.102292,0.20665 -0.339571,0.45922 -0.237278,0.25257 -0.472743,0.45922 -0.523257,0.45922 -0.05051,0 0.102292,-0.20665 0.33957,-0.45922 z m -14.253235,-0.13776 -0.349923,-0.4133 0.413297,0.34992 c 0.388397,0.32884 0.496919,0.47667 0.349923,0.47667 -0.03486,0 -0.22084,-0.18598 -0.413297,-0.41329 z m -2.659919,-0.64291 -0.445317,-0.50514 0.505141,0.44531 c 0.47213,0.41622 0.589378,0.56497 0.445316,0.56497 -0.0329,0 -0.260216,-0.22731 -0.50514,-0.50514 z m 19.668467,0.0459 c 0.237278,-0.25257 0.472743,-0.45922 0.523258,-0.45922 0.05051,0 -0.102292,0.20665 -0.339571,0.45922 -0.237278,0.25257 -0.472743,0.45922 -0.523257,0.45922 -0.05052,0 0.102291,-0.20665 0.33957,-0.45922 z m -18.294361,-0.50514 -0.349923,-0.4133 0.413297,0.34993 c 0.388398,0.32884 0.496919,0.47667 0.349923,0.47667 -0.03486,0 -0.22084,-0.18599 -0.413297,-0.4133 z m 16.916704,0.0459 c 0.182859,-0.20205 0.373801,-0.36737 0.424315,-0.36737 0.05051,0 -0.05777,0.16532 -0.240627,0.36737 -0.182859,0.20206 -0.373801,0.36738 -0.424315,0.36738 -0.05051,0 0.05777,-0.16532 0.240627,-0.36738 z m 2.663469,-0.6429 c 0.237279,-0.25257 0.472744,-0.45922 0.523258,-0.45922 0.05051,0 -0.102292,0.20665 -0.33957,0.45922 -0.237278,0.25257 -0.472744,0.45922 -0.523258,0.45922 -0.05051,0 0.102292,-0.20665 0.33957,-0.45922 z m -22.3354858,-0.13777 -0.3499225,-0.4133 0.4132969,0.34993 c 0.2273133,0.19245 0.4132969,0.37844 0.4132969,0.41329 0,0.147 -0.1478306,0.0385 -0.4766713,-0.34992 z m 1.4694998,-0.36737 -0.349922,-0.4133 0.413297,0.34992 c 0.227313,0.19246 0.413297,0.37844 0.413297,0.4133 0,0.14699 -0.147831,0.0385 -0.476672,-0.34992 z m 19.48833,0.0459 c 0.182859,-0.20206 0.3738,-0.36738 0.424315,-0.36738 0.05051,0 -0.05777,0.16532 -0.240627,0.36738 -0.18286,0.20205 -0.373801,0.36737 -0.424315,0.36737 -0.05051,0 0.05777,-0.16532 0.240627,-0.36737 z m -22.2436425,-0.78067 -0.3499225,-0.4133 0.4132969,0.34992 c 0.2273133,0.19246 0.413297,0.37844 0.413297,0.4133 0,0.14699 -0.1478307,0.0385 -0.4766714,-0.34992 z m 24.9989555,0.0459 c 0.182859,-0.20206 0.3738,-0.36738 0.424314,-0.36738 0.05051,0 -0.05777,0.16532 -0.240627,0.36738 -0.182859,0.20205 -0.3738,0.36737 -0.424314,0.36737 -0.05051,0 0.05777,-0.16532 0.240627,-0.36737 z m -23.5294553,-0.4133 -0.3499225,-0.4133 0.4132969,0.34993 c 0.3883972,0.32884 0.496919,0.47667 0.3499225,0.47667 -0.034856,0 -0.2208396,-0.18599 -0.4132969,-0.4133 z m 22.0599553,0.0459 c 0.182859,-0.20205 0.3738,-0.36737 0.424314,-0.36737 0.05051,0 -0.05777,0.16532 -0.240627,0.36737 -0.182859,0.20206 -0.3738,0.36738 -0.424314,0.36738 -0.05051,0 0.05777,-0.16532 0.240627,-0.36738 z m -23.259902,-1.0562 c -0.2284835,-0.29134 -0.2219864,-0.29784 0.069352,-0.0693 0.3059771,0.23996 0.4032821,0.3908 0.252101,0.3908 -0.038144,0 -0.1827976,-0.14465 -0.3214532,-0.32145 z m 24.270183,0.2521 c 0,-0.0381 0.144654,-0.1828 0.321453,-0.32145 0.29134,-0.22849 0.297837,-0.22199 0.06935,0.0693 -0.239964,0.30598 -0.390806,0.40328 -0.390806,0.2521 z m -12.783735,-4.20138 -0.349923,-0.4133 0.413297,0.34992 c 0.388397,0.32884 0.496919,0.47667 0.349923,0.47667 -0.03486,0 -0.22084,-0.18598 -0.413297,-0.41329 z m 1.395109,0.16025 c 0,-0.0381 0.144654,-0.18279 0.321453,-0.32145 0.291339,-0.22848 0.297836,-0.22199 0.06935,0.0694 -0.239964,0.30598 -0.390805,0.40329 -0.390805,0.2521 z m -2.680922,-1.26238 -0.349922,-0.41329 0.413297,0.34992 c 0.388397,0.32884 0.496919,0.47667 0.349922,0.47667 -0.03486,0 -0.220839,-0.18598 -0.413297,-0.4133 z m 4.058578,0.0459 c 0.182859,-0.20205 0.3738,-0.36737 0.424314,-0.36737 0.05051,0 -0.05777,0.16532 -0.240626,0.36737 -0.182859,0.20206 -0.3738,0.36738 -0.424314,0.36738 -0.05051,0 0.05777,-0.16532 0.240626,-0.36738 z m -2.686899,-0.50514 c -0.228484,-0.29134 -0.221987,-0.29783 0.06935,-0.0693 0.305977,0.23996 0.403282,0.39081 0.252101,0.39081 -0.03814,0 -0.182798,-0.14466 -0.321453,-0.32146 z m 1.125555,0.2521 c 0,-0.0381 0.144654,-0.18279 0.321453,-0.32145 0.291339,-0.22848 0.297836,-0.22199 0.06935,0.0693 -0.239964,0.30598 -0.390806,0.40329 -0.390806,0.2521 z m -3.783046,-0.895 -0.349923,-0.4133 0.413297,0.34992 c 0.227313,0.19246 0.413297,0.37844 0.413297,0.4133 0,0.147 -0.147831,0.0385 -0.476671,-0.34992 z m 6.630203,0.0459 c 0.182858,-0.20206 0.373799,-0.36738 0.424313,-0.36738 0.05051,0 -0.05777,0.16532 -0.240626,0.36738 -0.182858,0.20206 -0.373799,0.36737 -0.424313,0.36737 -0.05051,0 0.05777,-0.16531 0.240626,-0.36737 z m -5.160703,-0.4133 -0.349923,-0.41329 0.413297,0.34992 c 0.227313,0.19245 0.413297,0.37844 0.413297,0.41329 0,0.147 -0.147831,0.0385 -0.476671,-0.34992 z m 3.783046,-0.0459 c 0.237278,-0.25257 0.472744,-0.45922 0.523258,-0.45922 0.05051,0 -0.102293,0.20665 -0.33957,0.45922 -0.237278,0.25257 -0.472743,0.45922 -0.523257,0.45922 -0.05052,0 0.102292,-0.20665 0.339569,-0.45922 z m -6.538359,-0.68883 -0.349923,-0.4133 0.413297,0.34993 c 0.388397,0.32884 0.496919,0.47667 0.349923,0.47667 -0.03486,0 -0.22084,-0.18598 -0.413297,-0.4133 z m 9.201828,0.0459 c 0.182859,-0.20205 0.373801,-0.36737 0.424315,-0.36737 0.05051,0 -0.05777,0.16532 -0.240627,0.36737 -0.182858,0.20206 -0.3738,0.36738 -0.424314,0.36738 -0.05051,0 0.05777,-0.16532 0.240626,-0.36738 z m -7.732328,-0.41329 -0.349922,-0.4133 0.413296,0.34992 c 0.388398,0.32884 0.496919,0.47667 0.349923,0.47667 -0.03486,0 -0.22084,-0.18598 -0.413297,-0.41329 z m 6.354672,-0.0459 c 0.237277,-0.25257 0.472743,-0.45921 0.523257,-0.45921 0.05052,0 -0.102292,0.20664 -0.339569,0.45921 -0.237278,0.25258 -0.472744,0.45922 -0.523258,0.45922 -0.05051,0 0.102293,-0.20664 0.33957,-0.45922 z m -9.109985,-0.68882 -0.349922,-0.4133 0.413297,0.34992 c 0.227313,0.19246 0.413297,0.37844 0.413297,0.4133 0,0.147 -0.147831,0.0385 -0.476672,-0.34992 z m 11.773454,0.0459 c 0.182859,-0.20206 0.373801,-0.36738 0.424315,-0.36738 0.05051,0 -0.05777,0.16532 -0.240627,0.36738 -0.182859,0.20205 -0.373801,0.36737 -0.424315,0.36737 -0.05051,0 0.05777,-0.16532 0.240627,-0.36737 z m -10.392247,-0.50514 -0.445317,-0.50514 0.505141,0.44531 c 0.47213,0.41622 0.589378,0.56497 0.445316,0.56497 -0.0329,0 -0.260216,-0.22731 -0.50514,-0.50514 z m 9.014591,0.0459 c 0.237277,-0.25257 0.472743,-0.45922 0.523257,-0.45922 0.05052,0 -0.102291,0.20665 -0.33957,0.45922 -0.237277,0.25257 -0.472743,0.45922 -0.523257,0.45922 -0.05051,0 0.102292,-0.20665 0.33957,-0.45922 z m -11.68161,-0.68883 -0.349923,-0.4133 0.413297,0.34993 c 0.388397,0.32884 0.496919,0.47667 0.349923,0.47667 -0.03486,0 -0.22084,-0.18599 -0.413297,-0.4133 z m 14.436922,-0.0459 c 0.237279,-0.25257 0.472744,-0.45922 0.523258,-0.45922 0.05051,0 -0.102292,0.20665 -0.33957,0.45922 -0.237278,0.25257 -0.472744,0.45922 -0.523258,0.45922 -0.05051,0 0.102292,-0.20665 0.33957,-0.45922 z m -13.055716,-0.4133 -0.445316,-0.50514 0.50514,0.44532 c 0.47213,0.41621 0.589378,0.56496 0.445317,0.56496 -0.0329,0 -0.260217,-0.22731 -0.505141,-0.50514 z m 11.586216,0.0459 c 0.237279,-0.25257 0.472744,-0.45921 0.523258,-0.45921 0.05051,0 -0.102292,0.20664 -0.33957,0.45921 -0.237279,0.25258 -0.472744,0.45922 -0.523258,0.45922 -0.05051,0 0.102292,-0.20664 0.33957,-0.45922 z m -14.341529,-0.78067 -0.445316,-0.50514 0.505141,0.44532 c 0.277827,0.24492 0.50514,0.47224 0.50514,0.50514 0,0.14406 -0.14875,0.0268 -0.564965,-0.44532 z m 17.096842,0.0459 c 0.237278,-0.25257 0.472744,-0.45921 0.523258,-0.45921 0.05051,0 -0.102292,0.20664 -0.33957,0.45921 -0.237279,0.25257 -0.472744,0.45922 -0.523258,0.45922 -0.05051,0 0.102292,-0.20665 0.33957,-0.45922 z m -1.4695,-0.36737 c 0.237278,-0.25257 0.472744,-0.45922 0.523258,-0.45922 0.05051,0 -0.102292,0.20665 -0.339571,0.45922 -0.237278,0.25257 -0.472743,0.45922 -0.523257,0.45922 -0.05051,0 0.102292,-0.20665 0.33957,-0.45922 z m -14.253235,-0.13777 -0.349923,-0.41329 0.413297,0.34992 c 0.388397,0.32884 0.496919,0.47667 0.349923,0.47667 -0.03486,0 -0.22084,-0.18598 -0.413297,-0.4133 z m -2.659919,-0.6429 -0.445317,-0.50514 0.505141,0.44531 c 0.47213,0.41622 0.589378,0.56497 0.445316,0.56497 -0.0329,0 -0.260216,-0.22732 -0.50514,-0.50514 z m 19.668467,0.0459 c 0.237278,-0.25257 0.472743,-0.45922 0.523258,-0.45922 0.05051,0 -0.102292,0.20665 -0.339571,0.45922 -0.237278,0.25257 -0.472743,0.45922 -0.523257,0.45922 -0.05052,0 0.102291,-0.20665 0.33957,-0.45922 z m -18.294361,-0.50514 -0.349923,-0.4133 0.413297,0.34992 c 0.388398,0.32885 0.496919,0.47668 0.349923,0.47668 -0.03486,0 -0.22084,-0.18599 -0.413297,-0.4133 z m 16.916704,0.0459 c 0.182859,-0.20206 0.373801,-0.36737 0.424315,-0.36737 0.05051,0 -0.05777,0.16531 -0.240627,0.36737 -0.182859,0.20206 -0.373801,0.36738 -0.424315,0.36738 -0.05051,0 0.05777,-0.16532 0.240627,-0.36738 z m 2.663469,-0.64291 c 0.237279,-0.25257 0.472744,-0.45921 0.523258,-0.45921 0.05051,0 -0.102292,0.20664 -0.33957,0.45921 -0.237278,0.25257 -0.472744,0.45922 -0.523258,0.45922 -0.05051,0 0.102292,-0.20665 0.33957,-0.45922 z m -22.3354858,-0.13776 -0.3499225,-0.4133 0.4132969,0.34992 c 0.3883971,0.32884 0.496919,0.47668 0.3499225,0.47668 -0.034856,0 -0.2208396,-0.18599 -0.4132969,-0.4133 z m 1.4694998,-0.36738 -0.349922,-0.41329 0.413297,0.34992 c 0.388397,0.32884 0.496919,0.47667 0.349922,0.47667 -0.03486,0 -0.220839,-0.18598 -0.413297,-0.4133 z m 19.48833,0.0459 c 0.182859,-0.20206 0.3738,-0.36738 0.424315,-0.36738 0.05051,0 -0.05777,0.16532 -0.240627,0.36738 -0.18286,0.20205 -0.373801,0.36737 -0.424315,0.36737 -0.05051,0 0.05777,-0.16532 0.240627,-0.36737 z m -22.2436425,-0.78068 -0.3499225,-0.41329 0.4132969,0.34992 c 0.2273133,0.19246 0.413297,0.37844 0.413297,0.4133 0,0.14699 -0.1478307,0.0385 -0.4766714,-0.34993 z m 24.9989555,0.0459 c 0.182859,-0.20206 0.3738,-0.36738 0.424314,-0.36738 0.05051,0 -0.05777,0.16532 -0.240627,0.36738 -0.182859,0.20205 -0.3738,0.36737 -0.424314,0.36737 -0.05051,0 0.05777,-0.16532 0.240627,-0.36737 z m -23.5294553,-0.4133 -0.3499225,-0.4133 0.4132969,0.34992 c 0.3883972,0.32884 0.496919,0.47668 0.3499225,0.47668 -0.034856,0 -0.2208396,-0.18599 -0.4132969,-0.4133 z m 22.0599553,0.0459 c 0.182859,-0.20206 0.3738,-0.36737 0.424314,-0.36737 0.05051,0 -0.05777,0.16531 -0.240627,0.36737 -0.182859,0.20206 -0.3738,0.36738 -0.424314,0.36738 -0.05051,0 0.05777,-0.16532 0.240627,-0.36738 z m -23.259902,-1.0562 c -0.2284835,-0.29134 -0.2219864,-0.29784 0.069352,-0.0694 0.3059771,0.23997 0.4032821,0.39081 0.252101,0.39081 -0.038144,0 -0.1827976,-0.14465 -0.3214532,-0.32145 z m 24.270183,0.2521 c 0,-0.0382 0.144654,-0.1828 0.321453,-0.32146 0.29134,-0.22848 0.297837,-0.22198 0.06935,0.0694 -0.239964,0.30597 -0.390806,0.40328 -0.390806,0.2521 z"
         style="fill:#4f4f4f;stroke-width:0.18368752" />
      <path
         id="path3851"
         d="m 19.679626,289.99054 c -0.228484,-0.29134 -0.221987,-0.29784 0.06935,-0.0694 0.176799,0.13866 0.321453,0.28331 0.321453,0.32146 0,0.15118 -0.150841,0.0539 -0.390805,-0.2521 z m 1.125555,0.2521 c 0,-0.0381 0.144654,-0.1828 0.321453,-0.32146 0.291339,-0.22848 0.297836,-0.22198 0.06935,0.0694 -0.239964,0.30597 -0.390806,0.40328 -0.390806,0.2521 z m -2.123962,-1.0787 -0.539507,-0.59698 0.596985,0.5395 c 0.328341,0.29673 0.596984,0.56538 0.596984,0.59699 0,0.14191 -0.151566,0.017 -0.654462,-0.53951 z m 2.858712,0.53951 c 0,-0.0316 0.268643,-0.30026 0.596985,-0.59699 l 0.596984,-0.5395 -0.539507,0.59698 c -0.502896,0.55648 -0.654462,0.68142 -0.654462,0.53951 z m -1.977338,-1.15981 -0.686131,-0.66623 0.69522,0.57438 c 0.382371,0.31591 0.772127,0.57439 0.866124,0.57439 0.094,0 0.483753,-0.25848 0.866124,-0.57439 l 0.69522,-0.57438 -0.686131,0.66623 c -0.377371,0.36642 -0.771217,0.66622 -0.875213,0.66622 -0.103995,0 -0.497841,-0.2998 -0.875213,-0.66622 z m -4.424114,-2.35457 c -1.55075,-1.34465 -2.997289,-2.63276 -3.214532,-2.86247 -0.217242,-0.22971 1.072219,0.83831 2.865468,2.37337 2.785137,2.38414 3.475884,3.01727 3.214532,2.94638 -0.02526,-0.007 -1.314718,-1.11263 -2.865468,-2.45728 z m 7.687265,2.41225 c 0,-0.0316 0.268643,-0.30025 0.596984,-0.59698 l 0.596985,-0.53951 -0.539507,0.59699 c -0.502896,0.55647 -0.654462,0.68141 -0.654462,0.5395 z m -4.695587,-1.27425 -0.539507,-0.59699 0.596984,0.53951 c 0.556473,0.5029 0.681417,0.65446 0.539507,0.65446 -0.03161,0 -0.300256,-0.26864 -0.596984,-0.59698 z m 3.960837,0.5395 c 0,-0.0316 0.268643,-0.30025 0.596984,-0.59698 l 0.596985,-0.53951 -0.539507,0.59699 c -0.502896,0.55647 -0.654462,0.68141 -0.654462,0.5395 z m 2.020563,-0.36737 c 0,-0.0316 0.268643,-0.30026 0.596984,-0.59699 l 0.596984,-0.5395 -0.539506,0.59698 c -0.502897,0.55648 -0.654462,0.68142 -0.654462,0.53951 z m -7.267213,-1.27426 -0.539507,-0.59698 0.596984,0.5395 c 0.556474,0.5029 0.681417,0.65447 0.539507,0.65447 -0.03161,0 -0.300255,-0.26865 -0.596984,-0.59699 z m 6.532463,0.53951 c 0,-0.0316 0.268643,-0.30026 0.596984,-0.59699 l 0.596984,-0.5395 -0.539507,0.59698 c -0.502896,0.55648 -0.654461,0.68142 -0.654461,0.53951 z m 2.020562,-0.36391 c 0,-0.0505 0.578616,-0.60482 1.285813,-1.2318 0.707197,-0.62698 1.285813,-1.09863 1.285813,-1.04812 0,0.0505 -0.578616,0.60483 -1.285813,1.23181 -0.707197,0.62697 -1.285813,1.09863 -1.285813,1.04811 z m -9.838838,-1.27772 -0.539507,-0.59699 0.596985,0.53951 c 0.556473,0.50289 0.681417,0.65446 0.539507,0.65446 -0.03161,0 -0.300256,-0.26864 -0.596985,-0.59698 z m 9.104088,0.5395 c 0,-0.0316 0.268643,-0.30025 0.596985,-0.59698 l 0.596984,-0.53951 -0.539507,0.59699 c -0.502896,0.55647 -0.654462,0.68141 -0.654462,0.5395 z m -12.646828,-3.51437 c -1.55075,-1.34465 -2.9972889,-2.63276 -3.2145313,-2.86247 -0.2172423,-0.22971 1.072218,0.8383 2.8654673,2.37336 2.785137,2.38415 3.475884,3.01727 3.214532,2.94638 -0.02526,-0.007 -1.314718,-1.11262 -2.865468,-2.45727 z m 13.932641,2.41225 c 0,-0.0316 0.268643,-0.30026 0.596984,-0.59699 l 0.596985,-0.5395 -0.539507,0.59698 c -0.502896,0.55648 -0.654462,0.68142 -0.654462,0.53951 z m 2.20425,-0.55106 c 0,-0.0316 0.268643,-0.30026 0.596984,-0.59699 l 0.596985,-0.53951 -0.539507,0.59699 c -0.502896,0.55647 -0.654462,0.68142 -0.654462,0.53951 z m -0.918438,-0.5476 c 0,-0.0505 0.578616,-0.60483 1.285813,-1.2318 0.707197,-0.62698 1.285813,-1.09863 1.285813,-1.04812 0,0.0505 -0.578616,0.60483 -1.285813,1.23181 -0.707197,0.62697 -1.285813,1.09862 -1.285813,1.04811 z m -16.451588,-1.09404 -0.539507,-0.59698 0.596984,0.53951 c 0.556473,0.50289 0.681417,0.65446 0.539507,0.65446 -0.03161,0 -0.300255,-0.26865 -0.596984,-0.59699 z m 18.655839,0.53951 c 0,-0.0316 0.268643,-0.30026 0.596984,-0.59698 l 0.596985,-0.53951 -0.539507,0.59698 c -0.502896,0.55648 -0.654462,0.68142 -0.654462,0.53951 z m -19.9416519,-1.64163 -0.5395069,-0.59699 0.5969844,0.53951 c 0.5564734,0.5029 0.6814164,0.65446 0.5395074,0.65446 -0.03161,0 -0.300256,-0.26864 -0.5969849,-0.59698 z m 21.2274639,0.53951 c 0,-0.0316 0.268643,-0.30026 0.596985,-0.59699 l 0.596984,-0.53951 -0.539507,0.59699 c -0.502896,0.55647 -0.654462,0.68141 -0.654462,0.53951 z m -0.73475,-0.73475 c 0,-0.0316 0.268643,-0.30026 0.596985,-0.59699 l 0.596984,-0.53951 -0.539507,0.59699 c -0.502896,0.55647 -0.654462,0.68141 -0.654462,0.53951 z m -21.7785265,-0.90689 -0.539507,-0.59698 0.5969845,0.53951 c 0.5564731,0.50289 0.6814168,0.65446 0.5395069,0.65446 -0.031613,0 -0.3002555,-0.26865 -0.5969844,-0.59699 z m 23.7990895,0.53951 c 0,-0.0316 0.268643,-0.30026 0.596984,-0.59698 l 0.596985,-0.53951 -0.539507,0.59698 c -0.502896,0.55648 -0.654462,0.68142 -0.654462,0.53951 z m -0.73475,-0.73475 c 0,-0.0316 0.268643,-0.30026 0.596984,-0.59698 l 0.596985,-0.53951 -0.539507,0.59698 c -0.502896,0.55648 -0.654462,0.68142 -0.654462,0.53951 z M 7.2123047,279.47442 c -0.165556,-0.10699 -0.1882122,-0.17918 -0.056762,-0.18087 0.1203228,-0.002 0.269855,0.0799 0.3322938,0.18087 0.1409443,0.22806 0.077355,0.22806 -0.2755318,0 z m 26.2183313,-0.0228 c 0.124603,-0.12553 0.27282,-0.18197 0.329376,-0.12542 0.05655,0.0566 -0.04539,0.15927 -0.226548,0.22825 -0.261791,0.0997 -0.282889,0.0786 -0.102828,-0.10283 z M 8.0297142,278.7575 c -0.095977,-0.0912 -0.3398219,-0.20562 -0.5418782,-0.25422 -0.3484772,-0.0838 -0.3472719,-0.0895 0.02343,-0.10967 0.214943,-0.0117 0.4937072,0.10268 0.619476,0.25422 0.249355,0.30046 0.1794918,0.3763 -0.1010278,0.10967 z m 24.6917248,-0.0637 c 0.138656,-0.1768 0.427964,-0.31186 0.642906,-0.30014 0.371194,0.0202 0.37237,0.0258 0.02343,0.11161 -0.202056,0.0497 -0.491364,0.18473 -0.642906,0.30014 -0.239633,0.18251 -0.242686,0.16796 -0.02343,-0.11161 z m -12.943992,-4.04112 c -0.349569,-0.41288 -0.349537,-0.41298 0.03192,-0.0918 0.210011,0.1768 0.49281,0.32146 0.628442,0.32146 0.135632,0 0.418432,-0.14466 0.628443,-0.32146 0.381453,-0.32113 0.381485,-0.32103 0.03192,0.0918 -0.192457,0.22731 -0.489619,0.41329 -0.660359,0.41329 -0.17074,0 -0.467901,-0.18598 -0.660359,-0.41329 z m -1.096228,-0.91844 -0.539507,-0.59698 0.596985,0.5395 c 0.556473,0.5029 0.681416,0.65446 0.539507,0.65446 -0.03161,0 -0.300256,-0.26864 -0.596985,-0.59698 z m 2.858712,0.53951 c 0,-0.0316 0.268643,-0.30026 0.596985,-0.59699 l 0.596984,-0.5395 -0.539507,0.59698 c -0.502896,0.55647 -0.654462,0.68142 -0.654462,0.53951 z m -1.977338,-1.15981 -0.686131,-0.66623 0.69522,0.57438 c 0.382371,0.31591 0.772127,0.57438 0.866124,0.57438 0.094,0 0.483753,-0.25847 0.866124,-0.57438 l 0.69522,-0.57438 -0.686131,0.66623 c -0.377371,0.36642 -0.771217,0.66622 -0.875213,0.66622 -0.103995,0 -0.497841,-0.2998 -0.875213,-0.66622 z m -4.424114,-2.35457 c -1.55075,-1.34465 -2.997289,-2.63276 -3.214532,-2.86247 -0.217242,-0.22971 1.072219,0.83831 2.865468,2.37337 2.785137,2.38414 3.475884,3.01726 3.214532,2.94637 -0.02526,-0.007 -1.314718,-1.11262 -2.865468,-2.45727 z m 7.687265,2.41225 c 0,-0.0316 0.268643,-0.30025 0.596984,-0.59698 l 0.596985,-0.53951 -0.539507,0.59698 c -0.502896,0.55648 -0.654462,0.68142 -0.654462,0.53951 z m -4.695587,-1.27426 -0.539507,-0.59698 0.596984,0.53951 c 0.328342,0.29673 0.596985,0.56537 0.596985,0.59698 0,0.14191 -0.151566,0.017 -0.654462,-0.53951 z m 3.960837,0.53951 c 0,-0.0316 0.268643,-0.30025 0.596984,-0.59698 l 0.596985,-0.53951 -0.539507,0.59698 c -0.502896,0.55648 -0.654462,0.68142 -0.654462,0.53951 z m 2.020563,-0.36737 c 0,-0.0316 0.268643,-0.30026 0.596984,-0.59699 l 0.596984,-0.53951 -0.539506,0.59699 c -0.502897,0.55647 -0.654462,0.68142 -0.654462,0.53951 z m -7.267213,-1.27426 -0.539507,-0.59699 0.596984,0.53951 c 0.556474,0.5029 0.681417,0.65446 0.539507,0.65446 -0.03161,0 -0.300255,-0.26864 -0.596984,-0.59698 z m 6.532463,0.53951 c 0,-0.0316 0.268643,-0.30026 0.596984,-0.59699 l 0.596984,-0.53951 -0.539507,0.59699 c -0.502896,0.55647 -0.654461,0.68142 -0.654461,0.53951 z m 2.020562,-0.36391 c 0,-0.0505 0.578616,-0.60483 1.285813,-1.2318 0.707197,-0.62698 1.285813,-1.09863 1.285813,-1.04812 0,0.0505 -0.578616,0.60483 -1.285813,1.2318 -0.707197,0.62698 -1.285813,1.09863 -1.285813,1.04812 z m -9.838838,-1.27773 -0.539507,-0.59698 0.596985,0.53951 c 0.556473,0.50289 0.681417,0.65446 0.539507,0.65446 -0.03161,0 -0.300256,-0.26864 -0.596985,-0.59699 z m 9.104088,0.53951 c 0,-0.0316 0.268643,-0.30025 0.596985,-0.59698 l 0.596984,-0.53951 -0.539507,0.59698 c -0.502896,0.55648 -0.654462,0.68142 -0.654462,0.53951 z m -12.646828,-3.51438 c -1.55075,-1.34464 -2.9972889,-2.63276 -3.2145313,-2.86247 -0.2172423,-0.22971 1.072218,0.83831 2.8654673,2.37337 2.785137,2.38414 3.475884,3.01727 3.214532,2.94638 -0.02526,-0.007 -1.314718,-1.11263 -2.865468,-2.45728 z m 13.932641,2.41226 c 0,-0.0316 0.268643,-0.30026 0.596984,-0.59699 l 0.596985,-0.53951 -0.539507,0.59699 c -0.502896,0.55647 -0.654462,0.68142 -0.654462,0.53951 z m 2.20425,-0.55107 c 0,-0.0316 0.268643,-0.30025 0.596984,-0.59698 l 0.596985,-0.53951 -0.539507,0.59699 c -0.502896,0.55647 -0.654462,0.68141 -0.654462,0.5395 z m -0.918438,-0.54759 c 0,-0.0505 0.578616,-0.60483 1.285813,-1.2318 0.707197,-0.62698 1.285813,-1.09863 1.285813,-1.04812 0,0.0505 -0.578616,0.60483 -1.285813,1.2318 -0.707197,0.62698 -1.285813,1.09863 -1.285813,1.04812 z m -16.451588,-1.09404 -0.539507,-0.59698 0.596984,0.5395 c 0.328342,0.29673 0.596985,0.56538 0.596985,0.59699 0,0.14191 -0.151566,0.017 -0.654462,-0.53951 z m 18.655839,0.53951 c 0,-0.0316 0.268643,-0.30026 0.596984,-0.59699 l 0.596985,-0.5395 -0.539507,0.59698 c -0.502896,0.55647 -0.654462,0.68142 -0.654462,0.53951 z m -19.9416519,-1.64163 -0.5395069,-0.59699 0.5969844,0.53951 c 0.3283415,0.29673 0.5969844,0.56537 0.5969844,0.59698 0,0.14191 -0.1515657,0.017 -0.6544619,-0.5395 z m 21.2274639,0.5395 c 0,-0.0316 0.268643,-0.30025 0.596985,-0.59698 l 0.596984,-0.53951 -0.539507,0.59699 c -0.502896,0.55647 -0.654462,0.68141 -0.654462,0.5395 z m -0.73475,-0.73475 c 0,-0.0316 0.268643,-0.30025 0.596985,-0.59698 l 0.596984,-0.53951 -0.539507,0.59699 c -0.502896,0.55647 -0.654462,0.68141 -0.654462,0.5395 z m -21.7785265,-0.90688 -0.539507,-0.59698 0.5969845,0.5395 c 0.3283414,0.29673 0.5969844,0.56538 0.5969844,0.59699 0,0.14191 -0.1515657,0.017 -0.6544619,-0.53951 z m 23.7990895,0.53951 c 0,-0.0316 0.268643,-0.30026 0.596984,-0.59699 l 0.596985,-0.5395 -0.539507,0.59698 c -0.502896,0.55647 -0.654462,0.68142 -0.654462,0.53951 z m -0.73475,-0.73475 c 0,-0.0316 0.268643,-0.30026 0.596984,-0.59699 l 0.596985,-0.5395 -0.539507,0.59698 c -0.502896,0.55647 -0.654462,0.68142 -0.654462,0.53951 z M 7.2123047,264.04467 c -0.165556,-0.10699 -0.1882122,-0.17918 -0.056762,-0.18087 0.1203228,-0.002 0.269855,0.0798 0.3322938,0.18087 0.1409443,0.22806 0.077355,0.22806 -0.2755318,0 z m 26.2183313,-0.0228 c 0.124603,-0.12554 0.27282,-0.18197 0.329376,-0.12542 0.05655,0.0566 -0.04539,0.15927 -0.226548,0.22825 -0.261791,0.0997 -0.282889,0.0786 -0.102828,-0.10283 z M 8.0297142,263.32775 c -0.095977,-0.0912 -0.3398219,-0.20562 -0.5418782,-0.25422 -0.3484772,-0.0838 -0.3472719,-0.0895 0.02343,-0.10967 0.214943,-0.0117 0.4937072,0.10268 0.619476,0.25422 0.249355,0.30045 0.1794918,0.37629 -0.1010278,0.10967 z M 32.721439,263.264 c 0.138656,-0.1768 0.427964,-0.31186 0.642906,-0.30014 0.371194,0.0202 0.37237,0.0258 0.02343,0.11161 -0.202056,0.0497 -0.491364,0.18473 -0.642906,0.30014 -0.239633,0.1825 -0.242686,0.16796 -0.02343,-0.11161 z"
         style="fill:#2e2e2e;stroke-width:0.18368752" />
      <path
         id="path3849"
         d="m 20.100664,290.51825 c -0.134914,-0.0855 -0.246196,-0.22891 -0.247294,-0.31864 -0.002,-0.1641 -11.8304898,-10.39427 -12.6132262,-10.90887 -0.5414244,-0.35596 -0.3770057,-0.89913 0.2366576,-0.78182 0.2363782,0.0452 3.2134976,2.47138 6.6158196,5.39155 3.402323,2.92017 6.258791,5.30939 6.347706,5.30939 0.08892,0 2.939146,-2.38825 6.333846,-5.30722 3.3947,-2.91898 6.370684,-5.34517 6.613298,-5.39155 0.624479,-0.11938 0.795718,0.41961 0.247696,0.77965 -0.762517,0.50095 -12.671422,10.80632 -12.642884,10.94052 0.02706,0.12727 -0.367931,0.44248 -0.554477,0.44248 -0.05051,0 -0.202228,-0.07 -0.337142,-0.15549 z M 13.79539,269.4157 c -3.501787,-3.00458 -6.5037831,-5.54553 -6.6711026,-5.64656 -0.4479868,-0.27049 -0.181515,-0.79206 0.352514,-0.68997 0.2363782,0.0452 3.2134976,2.47138 6.6158196,5.39155 3.402323,2.92016 6.258791,5.30939 6.347706,5.30939 0.08892,0 2.939146,-2.38825 6.333846,-5.30722 3.3947,-2.91898 6.370684,-5.34518 6.613298,-5.39155 0.624389,-0.11936 0.795718,0.41958 0.24785,0.77965 -0.230583,0.15154 -3.231655,2.69331 -6.669049,5.64839 -3.437393,2.95507 -6.374499,5.37203 -6.526902,5.37102 -0.152402,-0.001 -3.142193,-2.46013 -6.64398,-5.4647 z"
         style="fill:#060606;stroke-width:0.18368752" />
    </g>
  </g>
</svg>
