<svg width="37" height="39" viewBox="0 0 37 39" version="1.1" xmlns="http://www.w3.org/2000/svg" xmlns:xlink="http://www.w3.org/1999/xlink">
<title>Vector</title>
<desc>Created using Figma</desc>
<g id="Canvas" transform="translate(-1406 -1123)">
<g id="Vector">
<use xlink:href="#path0_stroke" transform="translate(1407 1124.97)"/>
</g>
</g>
<defs>
</defs>
<path   stroke-linecap="round" stroke-linejoin="round" stroke-miterlimit="10" d="M 17.5 36.0333L 16.8484 36.7919C 17.2231 37.1138 17.7769 37.1138 18.1516 36.7919L 17.5 36.0333ZM 35.6516 21.7585C 36.0706 21.3986 36.1184 20.7673 35.7585 20.3484C 35.3987 19.9294 34.7673 19.8816 34.3484 20.2414L 35.6516 21.7585ZM 0.651624 20.2414C 0.232693 19.8816 -0.39866 19.9294 -0.758542 20.3484C -1.11842 20.7673 -1.07056 21.3986 -0.651624 21.7585L 0.651624 20.2414ZM 17.5 15.0333L 16.8484 15.7919C 17.2231 16.1138 17.7769 16.1138 18.1516 15.7919L 17.5 15.0333ZM 35.6516 0.758534C 36.0706 0.398652 36.1184 -0.232701 35.7585 -0.651632C 35.3987 -1.07056 34.7673 -1.11843 34.3484 -0.758551L 35.6516 0.758534ZM 0.651624 -0.758551C 0.232693 -1.11843 -0.39866 -1.07056 -0.758542 -0.651632C -1.11842 -0.232701 -1.07056 0.398652 -0.651624 0.758534L 0.651624 -0.758551ZM 18.1516 36.7919L 35.6516 21.7585L 34.3484 20.2414L 16.8484 35.2748L 18.1516 36.7919ZM 18.1516 35.2748L 0.651624 20.2414L -0.651624 21.7585L 16.8484 36.7919L 18.1516 35.2748ZM 18.1516 15.7919L 35.6516 0.758534L 34.3484 -0.758551L 16.8484 14.2748L 18.1516 15.7919ZM 18.1516 14.2748L 0.651624 -0.758551L -0.651624 0.758534L 16.8484 15.7919L 18.1516 14.2748Z"/>

</svg>
